<?xml version="1.0" encoding="UTF-8"?>
<svg xmlns="http://www.w3.org/2000/svg" xmlns:xlink="http://www.w3.org/1999/xlink" version="1.2" >
<font id="Wensley Regular">
<font-face  font-family="Wensley" units-per-em="1024" ascent="936" descent="-280" font-style="normal" font-weight="400" font-stretch="normal" cap-height="928" x-height="468" underline-position="-125" underline-thickness="50" />
<missing-glyph  horiz-adv-x="100" d="" />
<glyph glyph-name="NULL" d="" />
<glyph glyph-name="CR" unicode="&#xd;" horiz-adv-x="256" d="" />
<glyph glyph-name="space" unicode="&#x20;" horiz-adv-x="256" d="" />
<glyph glyph-name="exclam" unicode="&#x21;" horiz-adv-x="242" d="M129 -5 C171 -5 199 23 199 64 C199 106 171 134 129 134 C88 134 60 106 60 64 C60 23 88 -5 129 -5 L129 -5 Z M182 596 C187 637 163 665 123 665 C81 665 58 637 64 596 C64 480 123 209 123 209 L136 209 C136 209 182 480 182 596 L182 596 Z " />
<glyph glyph-name="quotedbl" unicode="&#x22;" horiz-adv-x="355" d="M192 660 L245 400 L262 400 L315 660 L192 660 L192 660 Z M39 660 L93 400 L109 400 L162 660 L39 660 L39 660 Z " />
<glyph glyph-name="numbersign" unicode="&#x23;" horiz-adv-x="581" d="M412 663 L387 497 L237 497 L262 663 L225 663 L200 497 L69 497 L59 423 L189 423 L161 237 L27 237 L17 163 L150 163 L126 0 L163 0 L187 163 L337 163 L313 0 L351 0 L375 163 L503 163 L514 237 L386 237 L414 423 L550 423 L561 497 L425 497 L450 663 L412 663 L412 663 Z M226 423 L376 423 L348 237 L198 237 L226 423 L226 423 Z " />
<glyph glyph-name="dollar" unicode="&#x24;" horiz-adv-x="536" d="M40 199 L40 42 C77 21 139 5 205 -1 L205 -74 L237 -74 L237 -3 C253 -4 269 -4 285 -3 L285 -73 L317 -73 L317 1 C423 17 491 87 491 185 C491 265 421 338 317 371 L317 633 C357 622 395 586 411 542 C420 518 432 487 441 463 L450 463 L450 620 L441 604 L441 604 L450 620 C414 641 365 657 317 664 L317 738 L285 738 L285 667 C269 668 253 668 238 667 L238 738 L206 738 L206 662 C107 641 44 569 44 469 C44 397 108 330 206 297 L206 32 C144 48 89 99 64 166 C60 177 54 192 50 203 L40 199 L40 199 Z M238 400 L238 641 C254 643 269 643 286 641 L286 382 C269 387 253 393 238 399 L238 400 L238 400 Z M206 414 C150 443 117 478 117 511 C117 571 151 615 206 633 L206 414 L206 414 Z M238 286 C255 281 271 275 286 269 L286 25 C270 24 254 24 238 25 L238 286 L238 286 Z M318 254 C380 222 417 181 417 141 C417 85 379 44 318 30 L318 254 L318 254 Z " />
<glyph glyph-name="ampersand" unicode="&#x26;" horiz-adv-x="735" d="M643 300 L472 300 L472 289 L483 288 C528 286 547 262 547 211 L547 181 C547 158 540 137 527 118 C467 178 364 300 311 374 C410 400 474 467 474 547 C474 618 411 665 316 665 C222 665 159 599 159 499 C159 458 180 409 217 352 C115 306 50 232 50 156 C50 60 134 -4 261 -4 C354 -4 432 15 486 48 C577 -15 651 -14 735 1 L735 17 C686 8 637 14 544 102 C560 125 568 152 568 181 L568 211 C568 262 587 286 632 288 L643 289 L643 300 L643 300 Z M232 542 C232 603 263 644 310 644 C364 644 400 603 400 542 C400 469 361 411 300 388 C257 451 232 503 232 543 L232 542 L232 542 Z M461 67 C422 49 372 39 314 39 C210 39 141 100 141 192 C141 248 175 301 229 335 C282 256 388 126 461 68 L461 67 L461 67 Z " />
<glyph glyph-name="quotesingle" unicode="&#x27;" horiz-adv-x="202" d="M39 660 L93 400 L109 400 L162 660 L39 660 L39 660 Z " />
<glyph glyph-name="parenleft" unicode="&#x28;" horiz-adv-x="267" d="M245 690 C133 572 59 444 59 270 C59 96 133 -32 245 -150 L257 -139 C183 -61 134 53 134 270 C134 487 183 601 257 679 L245 690 L245 690 Z " />
<glyph glyph-name="parenright" unicode="&#x29;" horiz-adv-x="267" d="M10 -150 C122 -32 196 96 196 270 C196 444 122 572 10 690 L-2 679 C72 601 121 487 121 270 C121 53 72 -61 -2 -139 L10 -150 L10 -150 Z " />
<glyph glyph-name="asterisk" unicode="&#x2a;" horiz-adv-x="300" d="M238 456 C239 455 240 455 239 454 L238 456 L238 456 Z M60 454 L60 454 L60 454 Z M15 462 C26 442 44 439 60 454 L60 453 C62 453 112 508 145 531 C139 509 122 448 122 419 C117 398 129 384 151 384 C173 384 185 398 180 419 C180 448 163 507 156 530 C172 513 215 469 240 454 L240 454 C256 440 273 443 284 461 C295 479 290 496 270 502 L270 503 C246 517 188 532 164 538 C188 544 246 559 270 573 L269 574 C289 580 295 597 284 616 C273 635 255 638 239 623 C239 623 239 623 239 622 C213 606 168 559 154 544 C156 582 180 658 180 658 C185 679 173 693 151 693 C129 693 117 679 122 658 C122 658 146 581 148 543 C115 564 61 622 61 622 L32 572 L33 572 C33 572 114 554 147 536 C118 521 33 499 31 502 C10 496 4 479 15 460 L15 462 L15 462 Z M31 572 C39 587 60 623 60 623 C44 638 26 635 15 616 C4 596 10 579 31 573 L31 572 L31 572 Z " />
<glyph glyph-name="plus" unicode="&#x2b;" horiz-adv-x="555" d="M252 450 L252 271 L75 271 L75 229 L252 229 L252 50 L298 50 L298 229 L475 229 L475 271 L298 271 L298 450 L252 450 L252 450 Z " />
<glyph glyph-name="comma" unicode="&#x2c;" horiz-adv-x="261" d="M129 134 C88 134 60 106 60 64 C60 23 88 -5 129 -5 C136 -5 144 2 152 12 C166 -54 130 -119 84 -140 L84 -156 C160 -121 211 -45 211 35 C211 84 181 134 129 134 L129 134 Z " />
<glyph glyph-name="hyphen" unicode="&#x2d;" horiz-adv-x="313" d="M20 198 L293 198 L293 272 L20 272 L20 198 L20 198 Z " />
<glyph glyph-name="period" unicode="&#x2e;" horiz-adv-x="254" d="M125 -5 C166 -5 194 23 194 64 C194 106 166 134 125 134 C84 134 56 106 56 64 C56 23 84 -5 125 -5 L125 -5 Z " />
<glyph glyph-name="slash" unicode="&#x2f;" horiz-adv-x="353" d="M0 -145 L43 -145 L353 710 L310 710 L0 -145 L0 -145 Z " />
<glyph glyph-name="zero" unicode="0" horiz-adv-x="637" d="M157 250 C157 390 222 484 319 484 C416 484 480 390 480 250 C480 110 416 16 319 16 C222 16 157 110 157 250 L157 250 Z M50 250 C50 97 158 -5 319 -5 C480 -5 587 97 587 250 C587 403 480 505 319 505 C158 505 50 403 50 250 L50 250 Z " />
<glyph glyph-name="one" unicode="1" horiz-adv-x="356" d="M301 11 L290 12 C245 14 226 38 226 89 L226 411 C226 462 245 486 290 488 L301 489 L301 500 L55 500 L55 489 L66 488 C111 486 130 462 130 411 L130 89 C130 38 111 14 66 12 L55 11 L55 0 L301 0 L301 11 L301 11 Z " />
<glyph glyph-name="two" unicode="2" horiz-adv-x="511" d="M485 171 L474 171 L472 160 C466 115 440 96 389 96 L184 96 C356 199 463 268 463 353 C463 444 393 505 287 505 C193 505 106 447 71 359 L83 351 C103 401 166 434 239 434 C309 434 356 388 356 320 C356 195 224 143 26 21 L26 0 L471 0 L476 48 L477 48 C480 86 484 133 487 170 L485 171 L485 171 Z " />
<glyph glyph-name="three" unicode="3" horiz-adv-x="492" d="M182 172 C277 172 340 118 340 36 C340 -96 213 -189 23 -198 L24 -215 C275 -204 442 -101 442 41 C442 133 367 198 252 208 C349 257 408 318 408 375 C408 453 344 505 247 505 C162 505 67 454 9 377 L20 369 C50 409 122 436 199 436 C267 436 312 399 312 343 C312 286 257 228 171 191 C159 186 144 181 127 175 L127 159 C142 163 167 171 181 171 L182 172 L182 172 Z " />
<glyph glyph-name="four" unicode="4" horiz-adv-x="528" d="M7 18 L7 0 L298 0 L298 -150 L394 -150 L394 0 L518 0 L518 43 L394 43 L394 505 L378 505 C349 489 7 18 7 18 L7 18 Z M63 43 C115 114 221 258 299 361 C298 357 298 354 298 351 L298 44 L63 43 L63 43 Z " />
<glyph glyph-name="five" unicode="5" horiz-adv-x="477" d="M383 399 L416 500 C424 526 432 553 439 575 L428 575 L423 564 C406 519 376 500 325 500 L87 500 C87 406 64 187 64 187 L88 187 C88 187 89 193 90 203 C89 194 88 188 87 188 L123 188 C247 188 329 133 329 51 C329 -72 209 -157 28 -162 L29 -181 C267 -174 425 -69 425 82 C425 203 323 283 171 283 L98 283 C102 319 106 361 109 400 L383 399 L383 399 Z " />
<glyph glyph-name="six" unicode="6" horiz-adv-x="595" d="M519 715 C242 705 58 537 58 295 C58 115 154 -5 299 -5 C454 -5 552 83 545 216 C545 345 459 431 331 431 C255 431 200 391 171 324 C171 542 309 692 521 699 L519 715 L519 715 Z M316 404 C393 404 444 327 444 211 C450 98 396 22 310 22 C225 22 168 95 168 204 C171 324 224 404 316 404 L316 404 Z " />
<glyph glyph-name="seven" unicode="7" horiz-adv-x="468" d="M15 327 L26 327 L28 338 C34 383 60 402 111 402 L411 402 L130 -140 L236 -140 C310 70 384 280 457 491 L449 500 L29 500 L25 451 L25 451 C22 413 18 364 15 327 L15 327 Z " />
<glyph glyph-name="eight" unicode="8" horiz-adv-x="565" d="M356 354 C433 384 482 445 482 519 C482 607 402 665 282 665 C161 665 81 595 81 491 C81 424 128 358 203 315 C111 296 53 239 53 161 C53 61 145 -5 284 -5 C423 -5 515 68 515 178 C515 239 453 306 356 354 L356 354 Z M342 361 C327 368 311 375 294 381 C215 410 162 469 162 528 C162 598 208 644 278 644 C354 644 404 588 404 503 L403 503 C403 439 380 387 343 361 L342 361 L342 361 Z M145 177 C145 239 173 286 219 306 C232 299 246 293 260 288 C360 252 426 195 426 145 C426 68 372 16 290 16 C203 16 145 80 145 177 L145 177 Z " />
<glyph glyph-name="nine" unicode="9" horiz-adv-x="595" d="M76 -215 C353 -205 537 -37 537 205 C537 385 441 505 296 505 C141 505 43 417 50 284 C50 155 136 69 264 69 C340 69 395 109 424 176 C424 -42 286 -192 74 -199 L76 -215 L76 -215 Z M279 96 C202 96 151 173 151 289 C145 402 199 478 285 478 C370 478 427 405 427 296 C424 176 371 96 279 96 L279 96 Z " />
<glyph glyph-name="colon" unicode="&#x3a;" horiz-adv-x="254" d="M125 400 C166 400 194 428 194 469 C194 510 166 538 125 538 C84 538 56 510 56 469 C56 428 84 400 125 400 L125 400 Z M125 -5 C166 -5 194 23 194 64 C194 106 166 134 125 134 C84 134 56 106 56 64 C56 23 84 -5 125 -5 L125 -5 Z " />
<glyph glyph-name="semicolon" unicode="&#x3b;" horiz-adv-x="261" d="M129 400 C170 400 198 428 198 469 C198 511 170 539 129 539 C88 539 60 511 60 469 C60 428 88 400 129 400 L129 400 Z M129 134 C88 134 60 106 60 64 C60 23 88 -5 129 -5 C136 -5 144 2 152 12 C166 -54 130 -119 84 -140 L84 -156 C160 -121 211 -45 211 35 C211 84 181 134 129 134 L129 134 Z " />
<glyph glyph-name="less" unicode="&#x3c;" horiz-adv-x="565" d="M490 500 L50 303 C47 303 43 299 40 299 L40 251 L50 247 L490 50 L490 98 L84 275 L490 452 L490 500 L490 500 Z " />
<glyph glyph-name="equal" unicode="&#x3d;" horiz-adv-x="560" d="M85 221 L85 179 L490 179 L490 221 L85 221 L85 221 Z M85 321 L85 279 L490 279 L490 321 L85 321 L85 321 Z " />
<glyph glyph-name="greater" unicode="&#x3e;" horiz-adv-x="555" d="M75 50 C222 117 369 184 515 252 L515 298 C512 298 508 303 505 303 L75 500 L75 452 L471 275 L75 98 L75 50 L75 50 Z " />
<glyph glyph-name="question" unicode="&#x3f;" horiz-adv-x="397" d="M148 -5 C189 -5 217 23 217 64 C217 106 189 134 148 134 C107 134 79 106 79 64 C79 23 107 -5 148 -5 L148 -5 Z M129 665 C74 665 38 640 38 602 C38 577 54 560 79 560 C103 560 135 590 159 590 C268 590 340 528 340 435 C340 413 313 374 169 374 L134 374 C124 374 119 368 120 360 L141 214 L154 214 L167 301 L202 301 C336 301 362 380 362 424 C362 569 269 665 129 665 L129 665 Z " />
<glyph glyph-name="at" unicode="&#x40;" horiz-adv-x="1205" d="M1079 0 C1013 -141 830 -235 621 -235 C326 -235 130 -37 130 259 C130 555 319 753 603 753 C886 753 1075 589 1075 343 C1075 142 1001 8 891 8 C801 8 760 85 789 200 L859 480 L768 480 L749 406 C730 458 678 491 608 491 C421 491 296 371 296 191 C296 81 372 8 485 8 C573 8 649 48 691 112 C702 28 768 -24 874 -24 C1040 -24 1151 123 1151 344 C1151 606 932 781 604 781 C276 781 57 573 57 260 C57 -53 283 -261 622 -261 C843 -261 1039 -156 1112 1 L1079 0 L1079 0 Z M738 357 L699 201 C678 117 612 61 535 61 C455 61 402 121 402 210 C402 362 484 464 607 464 C686 464 738 421 739 357 L738 357 L738 357 Z " />
<glyph glyph-name="A" unicode="A" horiz-adv-x="711" d="M-3 0 L213 0 L213 11 L197 12 C137 14 119 40 139 98 L188 233 L430 233 L491 89 C513 37 500 14 449 12 L424 11 L424 0 L706 0 L706 11 C658 11 634 28 607 89 L350 675 L324 675 L98 78 C79 34 51 13 9 11 L-3 10 L-3 0 L-3 0 Z M418 259 L198 259 L300 537 L418 259 L418 259 Z " />
<glyph glyph-name="B" unicode="B" horiz-adv-x="665" d="M38 649 L49 648 C94 646 113 622 113 571 L113 89 C113 38 94 14 49 12 L38 11 L38 0 L386 0 C541 0 645 73 645 183 C645 273 561 338 428 356 C528 377 590 432 590 506 C590 599 498 661 360 661 L38 661 L38 649 L38 649 Z M220 363 L220 634 L360 634 C434 634 484 583 484 506 C484 420 423 363 332 363 L220 363 L220 363 Z M220 340 L320 340 C448 340 533 278 533 184 C533 90 470 28 375 28 L220 28 L220 340 L220 340 Z " />
<glyph glyph-name="C" unicode="C" horiz-adv-x="739" d="M679 457 L679 606 C618 641 512 665 415 665 C195 665 48 531 48 330 C48 129 195 -5 415 -5 C512 -5 618 19 679 54 L679 203 L670 203 C666 192 660 177 656 166 C626 86 543 28 449 23 C438 22 427 22 416 22 C266 22 166 145 166 330 C166 515 266 638 416 638 C422 638 492 636 492 633 C563 624 629 569 657 494 C661 483 667 468 671 457 L679 457 L679 457 Z " />
<glyph glyph-name="D" unicode="D" horiz-adv-x="760" d="M38 649 L49 648 C94 646 113 622 113 571 L113 89 C113 38 94 14 49 12 L38 11 L38 0 L383 0 C579 0 710 132 710 330 C710 528 563 660 342 660 L38 660 L38 649 L38 649 Z M220 27 L220 633 L342 633 C499 633 604 512 604 330 C604 148 516 27 383 27 L220 27 L220 27 Z " />
<glyph glyph-name="E" unicode="E" horiz-adv-x="651" d="M471 254 L471 440 L462 440 L458 429 C442 384 407 365 339 365 L222 365 L222 633 L375 633 C451 633 496 600 522 524 L531 498 L539 498 L539 660 L40 660 L40 649 L51 648 C96 646 115 622 115 571 L115 89 C115 38 96 14 51 12 L40 11 L40 0 L539 0 L541 13 L542 13 C550 58 560 117 568 162 L560 162 L546 136 C506 60 455 27 379 27 L222 27 L222 339 L339 339 C407 339 443 317 458 267 L462 254 L471 254 L471 254 Z " />
<glyph glyph-name="F" unicode="F" horiz-adv-x="566" d="M40 649 L51 648 C96 646 115 622 115 571 L115 89 C115 38 96 14 51 12 L40 11 L40 0 L307 0 L307 11 L294 12 C244 14 222 38 222 89 L222 334 L329 334 C397 334 433 312 448 262 L452 249 L461 249 L461 435 L452 435 L448 424 C432 379 397 360 329 360 L222 360 L222 633 L405 633 C481 633 526 600 552 524 L561 498 L569 498 L569 660 L40 660 L40 649 L40 649 Z " />
<glyph glyph-name="G" unicode="G" horiz-adv-x="834" d="M659 457 L659 606 C598 641 496 665 405 665 C191 665 48 531 48 330 C48 129 191 -5 405 -5 C499 -5 603 19 664 54 L664 221 C664 272 683 296 728 298 L739 299 L739 310 L493 310 L493 299 L504 298 C549 296 568 272 568 221 L568 45 C518 31 460 23 405 23 C261 23 165 146 165 331 C165 516 261 639 405 639 C410 639 470 638 470 635 C541 627 608 571 636 495 C640 484 646 469 650 458 L659 457 L659 457 Z " />
<glyph glyph-name="H" unicode="H" horiz-adv-x="807" d="M767 11 L756 12 C711 14 692 38 692 89 L692 571 C692 622 711 646 756 648 L767 649 L767 660 L510 660 L510 649 L521 648 C566 646 585 622 585 571 L585 360 L222 360 L222 571 C222 622 241 646 286 648 L297 649 L297 660 L40 660 L40 649 L51 648 C96 646 115 622 115 571 L115 89 C115 38 96 14 51 12 L40 11 L40 0 L297 0 L297 11 L286 12 C241 14 222 38 222 89 L222 334 L585 334 L585 89 C585 38 566 14 521 12 L510 11 L510 0 L767 0 L767 11 L767 11 Z " />
<glyph glyph-name="I" unicode="I" horiz-adv-x="337" d="M297 11 L286 12 C241 14 222 38 222 89 L222 571 C222 622 241 646 286 648 L297 649 L297 660 L40 660 L40 649 L51 648 C96 646 115 622 115 571 L115 89 C115 38 96 14 51 12 L40 11 L40 0 L297 0 L297 11 L297 11 Z " />
<glyph glyph-name="J" unicode="J" horiz-adv-x="429" d="M389 660 L132 660 L132 649 L143 648 C188 646 207 622 207 571 L207 200 C207 64 190 11 148 11 C119 11 96 28 90 53 C84 78 65 95 42 95 C11 95 -6 78 0 53 C9 15 58 -10 122 -10 C260 -10 314 74 314 290 L314 571 C314 622 333 646 378 648 L389 649 L389 660 L389 660 Z " />
<glyph glyph-name="K" unicode="K" horiz-adv-x="701" d="M638 660 L458 660 L458 649 L467 648 C499 646 496 626 456 585 L220 355 L220 571 C220 622 239 646 284 648 L295 649 L295 660 L38 660 L38 649 L49 648 C94 646 113 622 113 571 L113 89 C113 38 94 14 49 12 L38 11 L38 0 L295 0 L295 11 L284 12 C239 14 220 38 220 89 L220 355 L237 333 C237 333 341 204 395 136 C476 34 549 -5 654 -5 L691 -5 L691 16 C641 16 586 67 472 210 C396 305 341 375 315 408 L493 580 C542 625 583 646 628 648 L640 649 L638 660 L638 660 Z " />
<glyph glyph-name="L" unicode="L" horiz-adv-x="651" d="M556 177 L533 126 C502 57 459 27 390 27 L222 27 L222 571 C222 622 241 646 286 648 L297 649 L297 660 L40 660 L40 649 L51 648 C96 646 115 622 115 571 L115 89 C115 38 96 14 51 12 L40 11 L40 0 L540 0 L542 13 L542 13 C550 60 561 122 569 169 C569 173 556 177 556 177 L556 177 Z " />
<glyph glyph-name="M" unicode="M" horiz-adv-x="901" d="M861 660 L690 660 L467 118 L465 121 L217 660 L59 660 L59 649 L70 648 C111 646 130 626 131 583 L112 89 C109 39 90 14 46 12 L34 11 L34 0 L251 0 L251 11 L231 12 C169 14 143 42 145 104 L161 529 C246 351 331 173 416 -5 L443 -5 L692 579 L707 89 C708 39 690 14 646 12 L635 11 L635 0 L891 0 L891 11 L879 12 C835 14 814 38 812 89 L790 574 C789 623 806 646 849 648 L861 649 L861 660 L861 660 Z " />
<glyph glyph-name="N" unicode="N" horiz-adv-x="742" d="M39 649 L50 648 C95 646 114 622 114 571 L114 89 C114 38 95 14 50 12 L39 11 L39 0 L221 0 L221 11 L210 12 C165 14 146 38 146 89 L146 568 C296 372 446 176 595 -20 L627 -20 L627 571 C627 622 646 646 691 648 L702 649 L702 660 L520 660 L520 649 L531 648 C576 646 595 622 595 571 L595 153 L210 660 L39 660 L39 649 L39 649 Z M146 616 L146 616 L146 616 Z " />
<glyph glyph-name="O" unicode="O" horiz-adv-x="785" d="M165 330 C165 496 242 638 392 638 C541 638 617 496 617 330 C617 164 541 22 392 22 C242 22 165 164 165 330 L165 330 Z M48 330 C48 149 165 -5 392 -5 C618 -5 735 149 735 330 C735 511 618 665 392 665 C165 665 48 511 48 330 L48 330 Z " />
<glyph glyph-name="P" unicode="P" horiz-adv-x="622" d="M295 11 L284 12 C239 14 220 38 220 89 L220 294 L335 294 C495 294 602 368 602 478 C602 587 506 660 363 660 L38 660 L38 649 L49 648 C94 646 113 622 113 571 L113 89 C113 38 94 14 49 12 L38 11 L38 0 L295 0 L295 11 L295 11 Z M220 321 L220 633 L363 633 C439 633 490 571 490 478 C490 384 428 321 335 321 L220 321 L220 321 Z " />
<glyph glyph-name="Q" unicode="Q" horiz-adv-x="785" d="M837 -15 L827 -7 C816 -21 752 -31 667 -31 C530 -31 449 -21 410 -5 C624 3 735 153 735 329 C735 510 618 664 392 664 C165 664 48 510 48 329 C48 155 156 6 365 -6 C431 -65 526 -103 656 -103 C724 -103 797 -69 837 -17 L837 -15 L837 -15 Z M165 328 C165 494 242 636 392 636 C541 636 617 494 617 328 C617 162 541 20 392 20 C242 20 165 162 165 328 L165 328 Z " />
<glyph glyph-name="R" unicode="R" horiz-adv-x="706" d="M38 649 L49 648 C94 646 113 622 113 571 L113 89 C113 38 94 14 49 12 L38 11 L38 0 L295 0 L295 11 L284 12 C239 14 220 38 220 89 L220 313 L310 313 C338 276 394 202 466 107 C543 5 551 1 667 1 L705 1 L705 22 C662 22 661 23 612 87 C523 205 457 290 430 324 C531 347 594 408 594 490 C594 592 500 660 359 660 L37 660 L38 649 L38 649 Z M331 340 L219 340 L219 633 L359 633 C433 633 482 576 482 490 C482 400 422 340 331 340 L331 340 Z " />
<glyph glyph-name="S" unicode="S" horiz-adv-x="536" d="M450 461 L450 618 L441 602 L441 602 L450 618 C401 646 328 665 266 665 C132 665 43 585 43 466 C43 389 115 318 224 288 C339 256 416 196 416 139 C416 69 356 22 267 22 C264 22 231 23 231 24 C159 30 92 86 63 162 C59 173 53 188 49 199 L40 199 L40 42 C89 14 180 -5 267 -5 C401 -5 491 70 491 183 C491 266 417 341 307 372 C192 404 116 459 116 509 C116 587 174 639 261 639 C262 639 310 635 309 633 C352 624 393 587 410 540 C419 516 431 485 440 461 L450 461 L450 461 Z " />
<glyph glyph-name="T" unicode="T" horiz-adv-x="645" d="M8 483 L34 544 C61 606 99 633 161 633 L269 633 L269 89 C269 38 250 14 205 12 L194 11 L194 0 L451 0 L451 11 L440 12 C395 14 376 38 376 89 L376 633 L483 633 C546 633 584 606 610 544 L636 483 L645 483 C641 532 635 598 631 647 L630 660 L14 660 L13 647 C11 647 0 495 -1 483 L8 483 L8 483 Z " />
<glyph glyph-name="U" unicode="U" horiz-adv-x="710" d="M690 660 L483 660 L483 649 L497 648 C550 646 573 619 573 561 L573 199 C573 99 518 32 375 32 C256 32 210 98 210 197 L210 571 C210 622 229 646 274 648 L285 649 L285 660 L28 660 L28 649 L39 648 C84 646 103 622 103 571 L103 218 C103 84 175 -5 359 -5 C536 -5 605 72 605 188 L605 561 C605 619 627 646 677 648 L690 649 L690 660 L690 660 Z " />
<glyph glyph-name="V" unicode="V" horiz-adv-x="702" d="M270 660 L-2 660 L-2 649 L7 648 C44 646 70 622 93 571 L357 -15 L384 -15 L603 581 C622 625 649 646 692 648 L703 649 L703 660 L480 660 L480 649 L497 648 C565 646 583 613 557 541 L407 125 L204 584 C189 626 204 646 251 648 L270 649 L270 660 L270 660 Z " />
<glyph glyph-name="W" unicode="W" horiz-adv-x="1038" d="M1034 660 L826 660 L826 649 L852 648 C904 646 918 623 902 571 L719 -15 L746 -15 L934 571 C951 621 977 646 1022 648 L1033 649 L1034 660 L1034 660 Z M261 660 L-3 660 L-3 649 L6 648 C43 646 67 622 87 571 L312 -15 L338 -15 L561 670 L534 670 L361 136 L200 581 C186 625 201 646 248 648 L261 649 L261 660 L261 660 Z M719 -15 L769 146 L561 670 L506 500 L719 -15 L719 -15 Z " />
<glyph glyph-name="X" unicode="X" horiz-adv-x="698" d="M412 0 L681 0 L681 11 L672 12 C638 14 608 38 574 89 C512 183 448 278 387 372 L522 571 C557 622 592 646 638 648 L650 649 L650 660 L428 660 L428 649 L454 648 C504 646 513 625 485 578 L370 398 L249 580 C221 625 230 647 279 649 L295 650 L295 661 L26 661 L26 650 L35 649 C69 647 99 623 133 572 C190 486 247 400 304 315 L152 90 C117 39 82 15 36 13 L24 12 L24 1 L243 1 L243 12 L228 13 C169 15 161 43 201 105 L321 289 L459 81 C487 36 478 14 429 12 L413 11 L412 0 L412 0 Z " />
<glyph glyph-name="Y" unicode="Y" horiz-adv-x="676" d="M209 0 L465 0 L465 11 L454 12 C409 14 390 38 390 89 L390 314 L390 314 L562 571 C597 621 630 646 670 648 L680 649 L680 660 L480 660 L480 649 L495 648 C550 646 561 620 527 564 L378 336 L236 572 C206 622 212 647 260 649 L272 650 L272 661 L6 661 L6 650 L14 649 C48 647 77 623 108 572 L284 282 L285 80 C283 36 264 15 222 13 L211 12 L209 0 L209 0 Z " />
<glyph glyph-name="Z" unicode="Z" horiz-adv-x="618" d="M544 178 L521 127 C490 58 447 28 378 28 L175 28 L555 660 L92 660 L88 646 L89 646 C78 606 64 553 53 513 L62 513 L83 544 C127 606 172 633 234 633 L417 633 L38 0 L528 0 L530 14 C538 61 549 123 557 170 C557 174 544 178 544 178 L544 178 Z " />
<glyph glyph-name="bracketleft" unicode="&#x5b;" horiz-adv-x="258" d="M143 639 L248 639 L248 660 L68 660 L68 -120 L248 -120 L248 -99 L143 -99 L143 639 L143 639 Z " />
<glyph glyph-name="backslash" unicode="&#x5c;" horiz-adv-x="256" d="M223 -145 L256 -145 L-27 710 L-60 710 L223 -145 L223 -145 Z " />
<glyph glyph-name="bracketright" unicode="&#x5d;" horiz-adv-x="254" d="M109 639 L109 -99 L4 -99 L4 -120 L184 -120 L184 660 L4 660 L4 639 L109 639 L109 639 Z " />
<glyph glyph-name="asciicircum" unicode="&#x5e;" horiz-adv-x="371" d="M217 717 C212 725 200 745 186 745 C171 745 159 726 155 718 C155 718 67 548 60 540 L70 532 C125 598 163 638 186 661 C230 615 302 533 302 533 L312 541 C312 541 262 627 217 718 L217 717 L217 717 Z M155 688 C154 690 154 691 155 691 L155 688 L155 688 Z " />
<glyph glyph-name="underscore" unicode="&#x5f;" horiz-adv-x="512" d="M5 -50 L5 -103 L507 -103 L507 -50 L5 -50 L5 -50 Z " />
<glyph glyph-name="grave" unicode="&#x60;" horiz-adv-x="371" d="M103 705 C103 698 118 679 141 655 C172 615 258 530 258 530 L269 538 C269 538 222 653 190 694 C175 725 163 745 158 745 C142 745 103 717 103 705 L103 705 Z " />
<glyph glyph-name="a" unicode="a" horiz-adv-x="529" d="M507 53 C498 43 485 36 460 36 C429 36 420 62 420 101 L420 354 C420 445 362 505 274 505 C155 505 67 460 54 393 L150 393 C160 445 201 479 252 479 C292 479 319 438 319 376 L319 262 C289 259 251 254 225 247 C112 219 36 162 36 104 C36 39 88 -5 165 -5 C222 -5 280 15 324 48 C332 12 352 -10 395 -10 C456 -10 492 10 519 40 L507 53 L507 53 Z M320 237 L320 90 C320 85 320 80 320 75 C291 64 254 57 214 57 C164 57 131 87 131 131 C131 168 168 202 224 216 C257 224 292 231 319 236 L320 237 L320 237 Z " />
<glyph glyph-name="b" unicode="b" horiz-adv-x="626" d="M167 30 C211 30 257 -5 315 -5 C469 -5 571 97 571 250 C571 403 487 505 361 505 C303 505 234 488 189 463 L189 720 L170 720 L18 674 L18 668 L29 665 C92 650 93 648 93 575 L93 0 L104 0 C113 18 139 30 167 30 L167 30 Z M315 22 C239 22 189 79 189 164 L189 447 C205 456 244 462 287 462 C396 462 469 361 469 209 C469 97 407 22 315 22 L315 22 Z " />
<glyph glyph-name="c" unicode="c" horiz-adv-x="533" d="M482 68 L473 78 C455 63 404 53 346 53 C230 53 152 139 152 268 C152 394 215 478 310 478 C356 478 389 448 393 404 C395 376 415 357 441 357 C466 357 483 374 483 399 C477 463 413 505 321 505 C158 505 50 395 50 231 C50 89 136 -5 266 -5 C343 -5 430 24 482 68 L482 68 Z " />
<glyph glyph-name="d" unicode="d" horiz-adv-x="631" d="M521 720 L502 720 L350 674 L350 668 L361 665 C424 650 425 648 425 575 L425 456 C393 485 347 505 297 505 C151 505 54 391 54 221 C54 85 136 -5 259 -5 C318 -5 382 18 425 54 L425 0 L444 0 L596 46 L596 52 L585 55 C522 70 521 72 521 145 L521 720 L521 720 Z M425 70 C408 60 364 54 311 54 C217 54 155 135 155 257 C155 390 210 479 292 479 C349 479 400 452 426 416 L425 70 L425 70 Z " />
<glyph glyph-name="e" unicode="e" horiz-adv-x="540" d="M489 68 L480 78 C462 63 410 53 350 53 C216 53 138 160 154 311 L490 311 C490 427 411 505 293 505 C147 505 50 395 50 231 C50 89 138 -5 270 -5 C349 -5 437 24 489 68 L489 68 Z M354 343 L157 329 C172 420 221 477 289 477 C356 477 401 443 401 391 C401 363 383 344 355 342 L354 343 L354 343 Z " />
<glyph glyph-name="f" unicode="f" horiz-adv-x="492" d="M299 11 L288 12 C243 14 224 38 224 89 L224 463 L376 463 L376 500 L224 500 L224 533 C224 632 303 699 337 699 C370 699 394 682 396 657 C398 631 417 614 444 614 C470 614 487 631 487 657 C484 695 434 720 363 720 C225 720 133 654 133 554 C130 554 128 500 128 500 L45 500 L45 463 L128 463 L128 89 C128 38 109 14 64 12 L53 11 L53 0 L299 0 L299 11 L299 11 Z " />
<glyph glyph-name="g" unicode="g" horiz-adv-x="501" d="M501 500 C454 492 407 485 361 477 C330 495 291 505 246 505 C133 505 58 442 58 347 C58 279 96 227 159 203 C89 195 44 154 44 96 C44 48 82 13 143 -1 C68 -22 20 -70 20 -127 C20 -196 85 -242 183 -242 C362 -242 482 -159 482 -35 C482 38 407 87 294 87 C283 87 200 83 200 83 C146 83 110 103 110 133 C110 167 140 189 185 189 L247 189 C360 189 435 252 435 347 C435 384 423 416 402 442 L501 447 L501 500 L501 500 Z M246 210 C188 210 149 265 149 347 C149 429 188 484 246 484 C305 484 344 429 344 347 C344 265 305 210 246 210 L246 210 Z M172 -5 C201 -8 225 -5 267 -5 C354 -5 412 -36 412 -83 C412 -162 324 -215 193 -215 C127 -215 83 -175 83 -116 C83 -62 118 -19 172 -5 L172 -5 Z " />
<glyph glyph-name="h" unicode="h" horiz-adv-x="656" d="M370 0 L616 0 L616 11 L605 12 C560 14 541 38 541 89 L541 338 C541 438 506 505 417 505 C373 505 294 479 216 439 L216 720 L197 720 L44 674 L44 667 L55 665 C118 650 119 648 119 575 L119 89 C119 38 100 14 55 12 L44 11 L44 0 L291 0 L291 11 L280 12 C235 14 216 38 216 89 L216 428 C242 436 291 441 344 441 C417 441 446 395 446 327 L446 89 C446 38 427 14 382 12 L371 11 L370 0 L370 0 Z " />
<glyph glyph-name="i" unicode="i" horiz-adv-x="336" d="M163 570 C201 570 227 596 227 634 C227 672 201 698 163 698 C125 698 99 672 99 634 C99 596 125 570 163 570 L163 570 Z M291 11 L280 12 C235 14 216 38 216 89 L216 500 L197 500 L45 454 L45 448 L56 445 C119 430 120 428 120 355 L120 89 C120 38 101 14 56 12 L45 11 L45 0 L291 0 L291 11 L291 11 Z " />
<glyph glyph-name="j" unicode="j" horiz-adv-x="341" d="M168 570 C206 570 232 596 232 634 C232 672 206 698 168 698 C130 698 104 672 104 634 C104 596 130 570 168 570 L168 570 Z M125 368 C125 228 125 0 124 1 C124 -124 93 -167 1 -225 L10 -238 C169 -139 222 -84 222 27 C221 29 221 474 221 474 L221 499 L202 499 L50 453 L50 447 L61 444 C120 430 125 427 125 367 L125 368 L125 368 Z " />
<glyph glyph-name="k" unicode="k" horiz-adv-x="600" d="M42 0 L288 0 L288 11 L277 12 C232 14 213 38 213 89 L213 275 L223 262 L224 263 L381 77 C414 34 414 14 380 12 L371 11 L371 0 L631 0 L631 11 L619 12 C576 14 540 34 502 77 L298 324 L400 411 C461 462 507 486 555 488 L567 489 L567 500 L388 500 L388 489 L397 488 C431 486 421 462 364 411 L214 275 L214 720 L195 720 L43 674 L43 668 L54 665 C117 650 118 648 118 575 L118 89 C118 38 99 14 54 12 L43 11 L42 0 L42 0 Z " />
<glyph glyph-name="l" unicode="l" horiz-adv-x="336" d="M291 11 L280 12 C235 14 216 38 216 89 L216 720 L197 720 L45 674 L45 668 L56 665 C119 650 120 648 120 575 L120 89 C120 38 101 14 56 12 L45 11 L45 0 L291 0 L291 11 L291 11 Z " />
<glyph glyph-name="m" unicode="m" horiz-adv-x="1002" d="M716 0 L962 0 L962 11 L951 12 C906 14 887 38 887 89 L887 338 C887 438 830 505 755 505 C712 505 628 472 535 423 C514 474 473 505 424 505 C371 505 294 479 217 439 L217 500 L198 500 L45 454 L45 447 L56 445 C119 430 120 428 120 355 L120 89 C120 38 101 14 56 12 L45 11 L45 0 L292 0 L292 11 L281 12 C236 14 217 38 217 89 L217 428 C246 439 292 447 349 447 C410 447 456 399 456 327 L456 89 C456 38 437 14 392 12 L381 11 L381 0 L627 0 L627 11 L616 12 C571 14 552 38 552 89 L552 338 C552 364 548 388 541 409 C579 428 631 441 683 441 C746 441 793 395 793 327 L793 89 C793 38 774 14 729 12 L718 11 L716 0 L716 0 Z " />
<glyph glyph-name="n" unicode="n" horiz-adv-x="656" d="M370 0 L616 0 L616 11 L605 12 C560 14 541 38 541 89 L541 338 C541 438 506 505 417 505 C373 505 294 479 216 439 L216 500 L197 500 L44 454 L44 447 L55 445 C118 430 119 428 119 355 L119 89 C119 38 100 14 55 12 L44 11 L44 0 L291 0 L291 11 L280 12 C235 14 216 38 216 89 L216 428 C242 436 291 441 344 441 C417 441 446 395 446 327 L446 89 C446 38 427 14 382 12 L371 11 L370 0 L370 0 Z " />
<glyph glyph-name="o" unicode="o" horiz-adv-x="627" d="M157 250 C157 390 220 484 314 484 C408 484 470 390 470 250 C470 110 408 16 314 16 C220 16 157 110 157 250 L157 250 Z M50 250 C50 97 156 -5 314 -5 C472 -5 577 97 577 250 C577 403 472 505 314 505 C156 505 50 403 50 250 L50 250 Z " />
<glyph glyph-name="p" unicode="p" horiz-adv-x="669" d="M291 -219 L280 -218 C235 -216 216 -192 216 -141 L216 24 C250 5 295 -5 346 -5 C507 -5 614 103 614 266 C614 409 532 505 410 505 C338 505 263 474 216 427 L216 500 L197 500 L44 454 L44 447 L55 445 C118 430 119 428 119 355 L119 -141 C119 -192 100 -216 55 -218 L44 -219 L44 -230 L291 -230 L291 -219 L291 -219 Z M216 135 L216 409 C241 428 286 440 335 440 C445 440 518 341 518 192 C518 89 449 21 346 21 C274 21 222 66 216 134 L216 135 L216 135 Z " />
<glyph glyph-name="q" unicode="q" horiz-adv-x="639" d="M594 -219 L583 -218 C538 -216 519 -192 519 -141 L519 500 L508 500 C499 482 476 470 450 470 C404 470 359 505 297 505 C151 505 54 391 54 221 C54 85 131 -5 247 -5 C309 -5 378 21 424 60 L424 -141 C424 -192 405 -216 360 -218 L349 -219 L349 -230 L595 -230 L594 -219 L594 -219 Z M424 78 C405 64 357 55 300 55 C212 55 154 136 154 258 C154 391 211 479 297 479 C373 479 424 422 424 337 L424 78 L424 78 Z " />
<glyph glyph-name="r" unicode="r" horiz-adv-x="456" d="M44 447 L55 445 C118 430 119 428 119 355 L119 89 C119 38 100 14 55 12 L44 11 L44 0 L291 0 L291 11 L280 12 C235 14 216 38 216 89 L216 414 C233 427 258 435 284 435 C319 435 365 398 400 398 C428 398 446 416 446 444 C446 481 422 506 361 506 C313 506 257 476 216 430 L216 501 L197 501 L44 455 L44 447 L44 447 Z " />
<glyph glyph-name="s" unicode="s" horiz-adv-x="446" d="M375 360 L375 464 L367 450 L367 450 L375 464 C332 489 278 505 238 505 C128 505 54 450 54 367 C54 313 116 253 208 216 C273 190 316 149 316 113 C316 55 276 17 215 17 C214 17 198 17 198 18 C144 22 92 62 66 119 C62 127 58 137 54 145 L46 145 L46 31 C83 9 149 -5 210 -5 C322 -5 396 56 396 148 C396 201 348 255 276 284 C188 319 129 365 129 400 C129 450 173 484 238 484 C246 484 258 481 272 476 C317 457 351 412 366 360 L375 360 L375 360 Z " />
<glyph glyph-name="t" unicode="t" horiz-adv-x="377" d="M25 474 L25 463 L99 463 L99 116 C99 22 122 -5 205 -5 C275 -5 320 16 357 47 L350 55 C338 45 313 38 253 38 C208 38 195 51 195 99 L195 463 L345 463 L345 500 L195 500 L195 640 L179 640 C139 550 76 482 25 474 L25 474 Z " />
<glyph glyph-name="u" unicode="u" horiz-adv-x="621" d="M340 489 L351 488 C396 486 415 462 415 411 L415 80 C398 67 366 59 313 59 C229 59 185 102 185 166 L186 501 L14 501 L14 490 L25 489 C70 487 88 462 89 411 L90 154 C90 59 140 -5 238 -5 C309 -5 368 22 415 64 L415 0 L434 0 L586 46 L586 52 L575 55 C512 70 511 72 511 145 L511 500 L340 500 L340 489 L340 489 Z " />
<glyph glyph-name="v" unicode="v" horiz-adv-x="543" d="M600 500 L423 500 L423 489 L433 488 C471 486 482 465 467 422 L338 107 L201 424 C186 466 196 486 233 488 L243 489 L243 500 L-11 500 L-11 489 L0 488 C46 486 76 461 99 410 L290 -11 L306 -11 L491 410 C514 461 543 485 589 487 L600 488 L600 500 L600 500 Z " />
<glyph glyph-name="w" unicode="w" horiz-adv-x="874" d="M258 500 L4 500 L4 489 L13 488 C50 486 76 461 99 410 L290 -11 L306 -11 L461 339 L620 -11 L636 -11 L822 410 C845 461 874 486 920 488 L931 489 L931 500 L724 500 L724 489 L749 488 C797 486 812 466 798 422 L669 107 L534 421 C518 465 533 486 581 488 L595 489 L595 500 L340 500 L340 489 L348 488 C382 486 407 461 430 410 L451 363 L450 363 L339 104 L206 410 C185 460 195 485 245 487 L258 488 L258 500 L258 500 Z " />
<glyph glyph-name="x" unicode="x" horiz-adv-x="581" d="M271 500 L12 500 L12 489 L21 488 C58 486 90 461 126 410 L247 238 L130 79 C94 34 57 13 8 11 L-6 10 L-6 -1 L224 -1 L224 10 L189 11 C137 13 131 36 168 88 L261 218 L360 76 C387 33 383 13 348 11 L338 10 L338 -1 L572 -1 L572 10 L564 11 C533 13 504 38 468 89 L320 300 L413 411 C456 462 495 487 541 489 L553 490 L553 501 L354 501 L354 490 L368 489 C420 487 423 462 385 412 L310 316 L235 423 C207 467 215 488 259 490 L271 491 L271 500 L271 500 Z " />
<glyph glyph-name="y" unicode="y" horiz-adv-x="543" d="M600 500 L423 500 L423 489 L433 488 C471 486 482 465 467 422 L338 107 L201 424 C186 466 196 486 233 488 L243 489 L243 500 L-11 500 L-11 489 L0 488 C46 486 76 461 99 410 L283 4 C276 -10 264 -35 254 -63 C221 -138 193 -167 155 -167 C155 -167 96 -142 70 -142 C41 -142 22 -158 22 -182 C22 -211 52 -230 96 -230 C178 -230 229 -186 279 -72 C291 -37 306 -10 306 -10 L491 411 C514 462 543 486 589 488 L600 489 L600 500 L600 500 Z " />
<glyph glyph-name="z" unicode="z" horiz-adv-x="509" d="M451 172 L428 121 C397 52 353 23 285 22 L169 22 L459 501 L70 501 L67 490 C59 460 48 419 40 389 L49 389 L60 403 C104 456 150 479 213 479 L335 479 L43 1 L436 1 L438 12 L437 12 C445 58 456 119 464 165 C464 169 451 173 451 173 L451 172 L451 172 Z " />
<glyph glyph-name="braceleft" unicode="&#x7b;" horiz-adv-x="268" d="M253 -120 L253 -104 L234 -104 C179 -104 142 -53 142 23 L142 150 C142 214 108 260 55 270 C108 280 142 326 142 391 L142 517 C142 593 179 644 234 644 L253 644 L253 660 L213 660 C125 660 67 603 67 517 L67 338 C67 298 43 278 5 278 L5 262 C43 262 67 242 67 203 L67 23 C67 -63 125 -120 213 -120 L253 -120 L253 -120 Z " />
<glyph glyph-name="bar" unicode="&#x7c;" horiz-adv-x="195" d="M60 770 L60 -234 L135 -234 L135 770 L60 770 L60 770 Z " />
<glyph glyph-name="braceright" unicode="&#x7d;" horiz-adv-x="268" d="M5 660 L5 644 L24 644 C79 644 116 593 116 517 L116 390 C116 326 150 280 203 270 C150 260 116 214 116 149 L116 23 C116 -53 79 -104 24 -104 L5 -104 L5 -120 L45 -120 C133 -120 191 -63 191 23 L191 202 C191 242 215 262 253 262 L253 278 C215 278 191 298 191 337 L191 517 C191 603 133 660 45 660 L5 660 L5 660 Z " />
<glyph glyph-name="asciitilde" unicode="&#x7e;" horiz-adv-x="371" d="M28 310 C28 345 47 369 75 369 C134 369 212 307 271 307 C324 307 360 357 360 431 L344 431 C344 394 323 370 292 370 C233 370 155 433 96 433 C46 433 12 384 12 310 L28 310 L28 310 Z " />
<glyph glyph-name="nbspace" unicode="&#xa0;" horiz-adv-x="247" d="" />
<glyph glyph-name="exclamdown" unicode="&#xa1;" horiz-adv-x="242" d="M113 505 C71 505 43 477 43 436 C43 394 71 366 113 366 C154 366 182 394 182 436 C182 477 154 505 113 505 L113 505 Z M60 -96 C55 -137 79 -165 119 -165 C161 -165 184 -137 178 -96 C178 136 119 291 119 291 L106 291 C106 291 60 136 60 -96 L60 -96 Z " />
<glyph glyph-name="cent" unicode="&#xa2;" horiz-adv-x="533" d="M290 575 L290 504 C144 491 50 385 50 232 C50 82 144 -14 290 -3 L290 -74 L322 -74 L322 1 C382 11 442 36 482 70 L473 80 C454 64 380 50 321 56 L321 479 C361 474 389 446 393 406 C395 378 415 359 441 359 C466 359 483 376 483 401 C477 465 413 507 322 507 L322 577 L290 575 L290 575 Z M290 62 C206 85 152 162 152 269 C152 386 206 467 290 478 L290 62 L290 62 Z " />
<glyph glyph-name="guillemotleft" unicode="&#xab;" horiz-adv-x="504" d="M203 245 C202 247 202 248 203 248 L203 245 C203 245 207 245 213 244 C259 214 449 34 449 34 L460 45 C460 45 344 177 298 248 C328 294 396 394 457 455 L446 466 C288 308 204 256 204 256 L203 245 L203 245 Z M116 249 C146 295 214 395 275 456 L264 467 C106 309 22 257 22 257 L22 249 L22 246 C21 248 21 249 22 249 L22 246 C22 246 26 246 32 245 C78 215 268 35 268 35 L278 46 C278 46 163 178 117 250 L116 249 L116 249 Z " />
<glyph glyph-name="acute" unicode="&#xb4;" horiz-adv-x="371" d="M111 530 C111 530 194 615 225 655 C247 680 262 699 262 705 C262 717 224 745 207 745 C203 745 191 725 176 694 C145 654 100 538 100 538 L111 530 L111 530 Z " />
<glyph glyph-name="guillemotright" unicode="&#xbb;" horiz-adv-x="504" d="M56 34 C56 34 246 214 292 244 C298 245 302 245 302 245 L302 248 C303 248 303 247 302 245 L302 256 C302 256 218 308 60 466 L49 455 C110 394 178 294 208 248 C162 177 46 45 46 45 L56 34 L56 34 Z M240 34 C240 34 430 214 476 244 C482 245 486 245 486 245 L486 248 C487 248 487 247 486 245 L486 256 C486 256 402 308 244 466 L233 455 C294 394 362 294 392 248 C346 176 231 44 231 44 L240 34 L240 34 Z " />
<glyph glyph-name="onequarter" unicode="&#xbc;" horiz-adv-x="792" d="M295 626 L295 626 L299 626 L295 626 L295 626 Z M334 670 L257 670 L257 664 L251 664 L251 668 L174 668 L174 663 C189 663 199 661 206 654 L206 460 C206 432 196 421 170 421 L170 416 L206 416 L206 415 L287 415 L287 417 L329 417 L329 423 L324 424 C301 425 292 437 292 463 L291 461 L287 461 L287 627 L296 627 C296 651 306 663 329 664 L335 665 L334 670 L334 670 Z M142 -22 L695 648 L653 682 L100 12 L142 -22 L142 -22 Z M486 58 L487 58 L485 56 C485 56 486 57 487 58 L486 58 L486 58 Z M467 72 L467 58 L485 58 L485 56 L583 56 L583 4 L665 4 L665 56 L728 56 L728 92 L665 92 L665 284 C666 285 667 285 668 285 L666 289 L666 308 L656 308 L655 310 C655 310 653 308 652 308 C620 281 467 74 467 74 L467 72 L467 72 Z M514 93 C533 118 559 153 585 186 C585 185 585 184 585 183 L585 94 L514 93 L514 93 Z " />
<glyph glyph-name="onehalf" unicode="&#xbd;" horiz-adv-x="792" d="M671 90 L620 90 C677 127 711 155 711 186 C711 230 674 259 618 259 C570 259 525 226 505 176 L515 170 C522 188 547 200 578 200 C603 200 620 184 620 160 C620 95 565 77 483 26 L483 6 C484 7 485 8 486 9 L706 9 L710 51 L712 51 C714 74 717 106 719 130 L714 130 C709 105 701 93 672 93 C672 92 671 92 671 91 L671 90 L671 90 Z M295 627 L295 627 L299 627 L295 627 L295 627 Z M334 671 L257 671 L257 665 L251 665 L251 669 L174 669 L174 664 C189 664 199 662 206 655 L206 461 C206 433 196 422 170 422 L170 417 L206 417 L206 416 L287 416 L287 418 L329 418 L329 424 L324 425 C301 426 292 438 292 464 L291 462 L287 462 L287 628 L296 628 C296 652 306 664 329 665 L335 666 L334 671 L334 671 Z M142 -21 L695 649 L653 683 L100 13 L142 -21 L142 -21 Z M489 10 C507 21 525 32 542 42 C524 26 506 12 490 10 L489 10 L489 10 Z " />
<glyph glyph-name="threequarters" unicode="&#xbe;" horiz-adv-x="792" d="M124 340 C254 346 341 393 341 457 C341 492 314 518 270 529 C311 553 335 581 335 607 C335 647 300 674 248 674 C207 674 156 642 120 594 L130 587 C142 604 174 615 209 615 C269 615 264 563 233 534 C229 534 225 534 221 534 C225 534 228 534 231 534 C218 522 200 512 179 506 L179 501 C178 501 177 501 176 501 L176 488 C186 492 197 495 204 495 C235 495 256 480 256 458 C256 403 203 364 124 361 L125 347 L124 340 L124 340 Z M141 -20 L694 650 L652 684 L99 14 L141 -20 L141 -20 Z M476 62 L477 62 L475 60 C475 60 476 61 477 62 L476 62 L476 62 Z M457 76 L457 62 L475 62 L475 60 L573 60 L573 8 L655 8 L655 60 L718 60 L718 96 L655 96 L655 288 C656 289 657 289 658 289 L656 293 L656 312 L646 312 L645 314 C645 314 643 312 642 312 C610 285 457 78 457 78 L457 76 L457 76 Z M504 97 C523 122 549 157 575 190 C575 189 575 188 575 187 L575 98 L504 97 L504 97 Z " />
<glyph glyph-name="questiondown" unicode="&#xbf;" horiz-adv-x="397" d="M249 505 C208 505 180 477 180 436 C180 394 208 366 249 366 C290 366 318 394 318 436 C318 477 290 505 249 505 L249 505 Z M268 -165 C323 -165 359 -140 359 -102 C359 -77 343 -60 318 -60 C294 -60 262 -90 238 -90 C129 -90 57 -28 57 65 C57 87 84 126 228 126 L263 126 C273 126 278 132 277 140 L256 286 L243 286 L230 199 L195 199 C61 199 35 120 35 76 C35 -69 128 -165 268 -165 L268 -165 Z " />
<glyph glyph-name="Agrave" unicode="&#xc0;" horiz-adv-x="711" d="M-3 0 L213 0 L213 11 L197 12 C137 14 119 40 139 98 L188 233 L430 233 L491 89 C513 37 500 14 449 12 L424 11 L424 0 L706 0 L706 11 C658 11 634 28 607 89 L350 675 L324 675 L98 78 C79 34 51 13 9 11 L-3 10 L-3 0 L-3 0 Z M254 864 C254 857 269 838 292 814 C323 774 409 689 409 689 L420 697 C420 697 373 812 341 853 C326 884 314 904 309 904 C293 904 254 876 254 864 L254 864 Z M418 259 L198 259 L300 537 L418 259 L418 259 Z " />
<glyph glyph-name="Aacute" unicode="&#xc1;" horiz-adv-x="711" d="M277 690 C277 690 360 775 391 815 C413 840 428 859 428 865 C428 877 390 905 373 905 C369 905 357 885 342 854 C311 814 266 698 266 698 L277 690 L277 690 Z M-3 0 L213 0 L213 11 L197 12 C137 14 119 40 139 98 L188 233 L430 233 L491 89 C513 37 500 14 449 12 L424 11 L424 0 L706 0 L706 11 C658 11 634 28 607 89 L350 675 L324 675 L98 78 C79 34 51 13 9 11 L-3 10 L-3 0 L-3 0 Z M418 259 L198 259 L300 537 L418 259 L418 259 Z " />
<glyph glyph-name="Acircumflex" unicode="&#xc2;" horiz-adv-x="711" d="M-3 0 L213 0 L213 11 L197 12 C137 14 119 40 139 98 L188 233 L430 233 L491 89 C513 37 500 14 449 12 L424 11 L424 0 L706 0 L706 11 C658 11 634 28 607 89 L350 675 L324 675 L98 78 C79 34 51 13 9 11 L-3 10 L-3 0 L-3 0 Z M368 876 C363 884 351 904 337 904 C323 904 311 885 307 877 C307 877 219 709 211 699 L221 691 C276 757 314 797 337 820 C381 774 453 692 453 692 L463 700 C463 700 413 786 368 877 L368 876 L368 876 Z M306 847 C305 850 305 851 306 851 L306 847 L306 847 Z M418 261 L198 261 L300 539 L418 261 L418 261 Z " />
<glyph glyph-name="Atilde" unicode="&#xc3;" horiz-adv-x="711" d="M179 755 C179 790 198 814 226 814 C285 814 363 752 422 752 C475 752 511 802 511 876 L495 876 C495 839 474 815 443 815 C384 815 306 878 247 878 C197 878 163 829 163 755 L179 755 L179 755 Z M-3 0 L213 0 L213 11 L197 12 C137 14 119 40 139 98 L188 233 L430 233 L491 89 C513 37 500 14 449 12 L424 11 L424 0 L706 0 L706 11 C658 11 634 28 607 89 L350 675 L324 675 L98 78 C79 34 51 13 9 11 L-3 10 L-3 0 L-3 0 Z M418 259 L198 259 L300 537 L418 259 L418 259 Z " />
<glyph glyph-name="Adieresis" unicode="&#xc4;" horiz-adv-x="711" d="M436 730 C471 730 495 754 495 789 C495 824 471 847 436 847 C401 847 377 824 377 789 C377 754 401 730 436 730 L436 730 Z M238 730 C273 730 297 754 297 789 C297 824 273 847 238 847 C203 847 179 824 179 789 C179 754 203 730 238 730 L238 730 Z M-3 0 L213 0 L213 11 L197 12 C137 14 119 40 139 98 L188 233 L430 233 L491 89 C513 37 500 14 449 12 L424 11 L424 0 L706 0 L706 11 C658 11 634 28 607 89 L350 675 L324 675 L98 78 C79 34 51 13 9 11 L-3 10 L-3 0 L-3 0 Z M418 259 L198 259 L300 537 L418 259 L418 259 Z " />
<glyph glyph-name="Aring" unicode="&#xc5;" horiz-adv-x="711" d="M268 788 C268 831 296 859 337 859 C378 859 406 831 406 788 C406 749 374 716 337 716 C300 716 268 749 268 788 L268 788 Z M241 788 C241 738 285 695 337 695 C389 695 433 738 433 788 C433 843 395 880 337 880 C279 880 241 843 241 788 L241 788 Z M-3 0 L213 0 L213 11 L197 12 C137 14 119 40 139 98 L188 233 L430 233 L491 89 C513 37 500 14 449 12 L424 11 L424 0 L706 0 L706 11 C658 11 634 28 607 89 L350 675 L324 675 L98 78 C79 34 51 13 9 11 L-3 10 L-3 0 L-3 0 Z M418 259 L198 259 L300 537 L418 259 L418 259 Z " />
<glyph glyph-name="Ccedilla" unicode="&#xc7;" horiz-adv-x="739" d="M679 457 L679 606 C618 641 512 665 415 665 C195 665 48 531 48 330 C48 132 191 -1 405 -5 C399 -16 382 -48 359 -92 L365 -96 C384 -87 409 -81 428 -81 C465 -81 490 -103 490 -136 C490 -170 457 -193 408 -193 C373 -193 343 -188 333 -180 L328 -191 C351 -209 391 -221 428 -221 C501 -221 549 -187 549 -136 C549 -92 509 -62 450 -62 C424 -62 394 -68 375 -77 C402 -31 422 -13 432 -6 C524 -3 621 20 678 53 L678 202 L669 202 C665 191 659 176 655 165 C625 85 542 27 448 22 C437 21 426 21 415 21 C265 21 165 144 165 329 C165 514 265 637 415 637 C421 637 491 635 491 632 C562 623 628 568 656 493 C660 482 666 467 670 456 L679 457 L679 457 Z " />
<glyph glyph-name="Egrave" unicode="&#xc8;" horiz-adv-x="651" d="M220 865 C220 858 236 839 259 815 C291 775 377 690 377 690 L388 698 C388 698 340 813 308 854 C293 885 280 905 275 905 C259 905 220 877 220 865 L220 865 Z M471 254 L471 440 L462 440 L458 429 C442 384 407 365 339 365 L222 365 L222 633 L375 633 C451 633 496 600 522 524 L531 498 L539 498 L539 660 L40 660 L40 649 L51 648 C96 646 115 622 115 571 L115 89 C115 38 96 14 51 12 L40 11 L40 0 L539 0 L541 13 L542 13 C550 58 560 117 568 162 L560 162 L546 136 C506 60 455 27 379 27 L222 27 L222 339 L339 339 C407 339 443 317 458 267 L462 254 L471 254 L471 254 Z " />
<glyph glyph-name="Eacute" unicode="&#xc9;" horiz-adv-x="651" d="M289 690 C289 690 373 775 404 815 C426 840 441 859 441 865 C441 877 403 905 387 905 C383 905 370 885 355 854 C324 814 278 698 278 698 L289 690 L289 690 Z M471 254 L471 440 L462 440 L458 429 C442 384 407 365 339 365 L222 365 L222 633 L375 633 C451 633 496 600 522 524 L531 498 L539 498 L539 660 L40 660 L40 649 L51 648 C96 646 115 622 115 571 L115 89 C115 38 96 14 51 12 L40 11 L40 0 L539 0 L541 13 L542 13 C550 58 560 117 568 162 L560 162 L546 136 C506 60 455 27 379 27 L222 27 L222 339 L339 339 C407 339 443 317 458 267 L462 254 L471 254 L471 254 Z " />
<glyph glyph-name="Ecircumflex" unicode="&#xca;" horiz-adv-x="651" d="M350 877 C345 885 333 905 320 905 C305 905 293 886 289 878 C289 878 201 708 194 700 L203 692 C259 758 297 798 320 821 C363 775 435 692 435 692 L444 700 C444 700 394 786 349 877 L350 877 L350 877 Z M288 847 C287 849 287 850 288 850 L288 847 L288 847 Z M470 254 L470 440 L461 440 L457 429 C441 384 406 365 338 365 L221 365 L221 633 L374 633 C450 633 495 600 521 524 L530 498 L538 498 L538 660 L39 660 L39 649 L50 648 C95 646 114 622 114 571 L114 89 C114 38 95 14 50 12 L39 11 L39 0 L538 0 L540 13 L541 13 C549 58 559 117 567 162 L559 162 L545 136 C505 60 454 27 378 27 L221 27 L221 339 L338 339 C406 339 442 317 457 267 L461 254 L470 254 L470 254 Z " />
<glyph glyph-name="Edieresis" unicode="&#xcb;" horiz-adv-x="651" d="M419 730 C454 730 477 754 477 789 C477 824 454 847 419 847 C384 847 360 824 360 789 C360 754 384 730 419 730 L419 730 Z M220 730 C255 730 279 754 279 789 C279 824 255 847 220 847 C185 847 162 824 162 789 C162 754 185 730 220 730 L220 730 Z M471 254 L471 440 L462 440 L458 429 C442 384 407 365 339 365 L222 365 L222 633 L375 633 C451 633 496 600 522 524 L531 498 L539 498 L539 660 L40 660 L40 649 L51 648 C96 646 115 622 115 571 L115 89 C115 38 96 14 51 12 L40 11 L40 0 L539 0 L541 13 L542 13 C550 58 560 117 568 162 L560 162 L546 136 C506 60 455 27 379 27 L222 27 L222 339 L339 339 C407 339 443 317 458 267 L462 254 L471 254 L471 254 Z " />
<glyph glyph-name="Igrave" unicode="&#xcc;" horiz-adv-x="337" d="M85 865 C85 858 100 839 123 815 C154 775 240 690 240 690 L251 698 C251 698 204 813 172 854 C157 885 145 905 140 905 C124 905 85 877 85 865 L85 865 Z M297 11 L286 12 C241 14 222 38 222 89 L222 571 C222 622 241 646 286 648 L297 649 L297 660 L40 660 L40 649 L51 648 C96 646 115 622 115 571 L115 89 C115 38 96 14 51 12 L40 11 L40 0 L297 0 L297 11 L297 11 Z " />
<glyph glyph-name="Iacute" unicode="&#xcd;" horiz-adv-x="337" d="M108 690 C108 690 191 775 222 815 C244 840 259 859 259 865 C259 877 221 905 204 905 C200 905 188 885 173 854 C142 814 97 698 97 698 L108 690 L108 690 Z M297 11 L286 12 C241 14 222 38 222 89 L222 571 C222 622 241 646 286 648 L297 649 L297 660 L40 660 L40 649 L51 648 C96 646 115 622 115 571 L115 89 C115 38 96 14 51 12 L40 11 L40 0 L297 0 L297 11 L297 11 Z " />
<glyph glyph-name="Icircumflex" unicode="&#xce;" horiz-adv-x="337" d="M199 877 C194 885 182 905 168 905 C154 905 142 886 138 878 C138 878 50 710 42 700 L52 692 C107 758 145 798 168 821 C212 775 284 693 284 693 L294 701 C294 701 244 787 199 878 L199 877 L199 877 Z M137 848 C136 851 136 852 137 852 L137 848 L137 848 Z M297 13 L286 14 C241 16 222 40 222 91 L222 573 C222 624 241 648 286 650 L297 651 L297 662 L40 662 L40 651 L51 650 C96 648 115 624 115 573 L115 91 C115 40 96 16 51 14 L40 13 L40 2 L297 2 L297 13 L297 13 Z " />
<glyph glyph-name="Idieresis" unicode="&#xcf;" horiz-adv-x="337" d="M267 730 C302 730 326 754 326 789 C326 824 302 847 267 847 C232 847 208 824 208 789 C208 754 232 730 267 730 L267 730 Z M69 730 C104 730 128 754 128 789 C128 824 104 847 69 847 C34 847 10 824 10 789 C10 754 34 730 69 730 L69 730 Z M297 11 L286 12 C241 14 222 38 222 89 L222 571 C222 622 241 646 286 648 L297 649 L297 660 L40 660 L40 649 L51 648 C96 646 115 622 115 571 L115 89 C115 38 96 14 51 12 L40 11 L40 0 L297 0 L297 11 L297 11 Z " />
<glyph glyph-name="Ntilde" unicode="&#xd1;" horiz-adv-x="742" d="M213 755 C213 790 232 814 260 814 C319 814 397 752 455 752 C508 752 544 802 544 876 L528 876 C528 839 507 815 476 815 C418 815 340 878 281 878 C231 878 197 829 197 755 L213 755 L213 755 Z M39 649 L50 648 C95 646 114 622 114 571 L114 89 C114 38 95 14 50 12 L39 11 L39 0 L221 0 L221 11 L210 12 C165 14 146 38 146 89 L146 568 C296 372 446 176 595 -20 L627 -20 L627 571 C627 622 646 646 691 648 L702 649 L702 660 L520 660 L520 649 L531 648 C576 646 595 622 595 571 L595 153 L210 660 L39 660 L39 649 L39 649 Z M146 616 L146 616 L146 616 Z " />
<glyph glyph-name="Ograve" unicode="&#xd2;" horiz-adv-x="785" d="M165 330 C165 496 242 638 392 638 C541 638 617 496 617 330 C617 164 541 22 392 22 C242 22 165 164 165 330 L165 330 Z M48 330 C48 149 165 -5 392 -5 C618 -5 735 149 735 330 C735 511 618 665 392 665 C165 665 48 511 48 330 L48 330 Z M308 865 C308 858 324 839 347 815 C379 775 465 690 465 690 L476 698 C476 698 428 813 396 854 C381 885 368 905 363 905 C347 905 308 877 308 865 L308 865 Z " />
<glyph glyph-name="Oacute" unicode="&#xd3;" horiz-adv-x="785" d="M368 690 C368 690 452 775 483 815 C505 840 520 859 520 865 C520 877 482 905 466 905 C462 905 449 885 434 854 C403 814 357 698 357 698 L368 690 L368 690 Z M165 330 C165 496 242 638 392 638 C541 638 617 496 617 330 C617 164 541 22 392 22 C242 22 165 164 165 330 L165 330 Z M48 330 C48 149 165 -5 392 -5 C618 -5 735 149 735 330 C735 511 618 665 392 665 C165 665 48 511 48 330 L48 330 Z " />
<glyph glyph-name="Ocircumflex" unicode="&#xd4;" horiz-adv-x="785" d="M165 330 C165 496 242 638 392 638 C541 638 617 496 617 330 C617 164 541 22 392 22 C242 22 165 164 165 330 L165 330 Z M48 330 C48 149 165 -5 392 -5 C618 -5 735 149 735 330 C735 511 618 665 392 665 C165 665 48 511 48 330 L48 330 Z M422 877 C417 885 405 905 392 905 C377 905 365 886 361 878 C361 878 273 708 266 700 L275 692 C331 758 369 798 392 821 C435 775 507 692 507 692 L516 700 C516 700 466 786 421 877 L422 877 L422 877 Z M360 847 C359 849 359 850 360 850 L360 847 L360 847 Z " />
<glyph glyph-name="Otilde" unicode="&#xd5;" horiz-adv-x="785" d="M234 755 C234 790 253 814 281 814 C340 814 418 752 476 752 C529 752 565 802 565 876 L549 876 C549 839 528 815 497 815 C439 815 361 878 302 878 C252 878 218 829 218 755 L234 755 L234 755 Z M165 330 C165 496 242 638 392 638 C541 638 617 496 617 330 C617 164 541 22 392 22 C242 22 165 164 165 330 L165 330 Z M48 330 C48 149 165 -5 392 -5 C618 -5 735 149 735 330 C735 511 618 665 392 665 C165 665 48 511 48 330 L48 330 Z " />
<glyph glyph-name="Odieresis" unicode="&#xd6;" horiz-adv-x="785" d="M491 730 C526 730 549 754 549 789 C549 824 526 847 491 847 C456 847 432 824 432 789 C432 754 456 730 491 730 L491 730 Z M292 730 C327 730 351 754 351 789 C351 824 327 847 292 847 C257 847 234 824 234 789 C234 754 257 730 292 730 L292 730 Z M165 330 C165 496 242 638 392 638 C541 638 617 496 617 330 C617 164 541 22 392 22 C242 22 165 164 165 330 L165 330 Z M48 330 C48 149 165 -5 392 -5 C618 -5 735 149 735 330 C735 511 618 665 392 665 C165 665 48 511 48 330 L48 330 Z " />
<glyph glyph-name="Oslash" unicode="&#xd8;" horiz-adv-x="785" d="M65 -22 L160 71 C216 24 293 -5 391 -5 C617 -5 734 149 734 330 C734 416 708 496 656 556 L751 649 L717 683 L622 590 C566 637 489 666 392 666 C165 666 48 512 48 331 C48 245 74 165 126 105 L31 12 L65 -22 L65 -22 Z M567 535 L193 170 C174 217 165 272 165 330 C165 496 242 638 392 638 C471 638 530 598 567 535 L567 535 Z M589 489 C607 442 616 387 616 329 C616 163 540 21 391 21 C311 21 252 61 214 123 L589 489 L589 489 Z " />
<glyph glyph-name="Ugrave" unicode="&#xd9;" horiz-adv-x="710" d="M271 865 C271 858 286 839 309 815 C340 775 426 690 426 690 L437 698 C437 698 390 813 358 854 C343 885 331 905 326 905 C310 905 271 877 271 865 L271 865 Z M690 660 L483 660 L483 649 L497 648 C550 646 573 619 573 561 L573 199 C573 99 518 32 375 32 C256 32 210 98 210 197 L210 571 C210 622 229 646 274 648 L285 649 L285 660 L28 660 L28 649 L39 648 C84 646 103 622 103 571 L103 218 C103 84 175 -5 359 -5 C536 -5 605 72 605 188 L605 561 C605 619 627 646 677 648 L690 649 L690 660 L690 660 Z " />
<glyph glyph-name="Uacute" unicode="&#xda;" horiz-adv-x="710" d="M354 690 C354 690 437 775 468 815 C490 840 505 859 505 865 C505 877 467 905 450 905 C446 905 434 885 419 854 C388 814 343 698 343 698 L354 690 L354 690 Z M690 660 L483 660 L483 649 L497 648 C550 646 573 619 573 561 L573 199 C573 99 518 32 375 32 C256 32 210 98 210 197 L210 571 C210 622 229 646 274 648 L285 649 L285 660 L28 660 L28 649 L39 648 C84 646 103 622 103 571 L103 218 C103 84 175 -5 359 -5 C536 -5 605 72 605 188 L605 561 C605 619 627 646 677 648 L690 649 L690 660 L690 660 Z " />
<glyph glyph-name="Ucircumflex" unicode="&#xdb;" horiz-adv-x="710" d="M385 877 C380 885 368 905 354 905 C340 905 328 886 324 878 C324 878 236 710 228 700 L238 692 C293 758 331 798 354 821 C398 775 470 693 470 693 L480 701 C480 701 430 787 385 878 L385 877 L385 877 Z M323 848 C322 851 322 852 323 852 L323 848 L323 848 Z M690 662 L483 662 L483 651 L497 650 C550 648 573 621 573 563 L573 201 C573 101 518 34 375 34 C256 34 210 100 210 199 L210 573 C210 624 229 648 274 650 L285 651 L285 662 L28 662 L28 651 L39 650 C84 648 103 624 103 573 L103 220 C103 86 175 -3 359 -3 C536 -3 605 74 605 190 L605 563 C605 621 627 648 677 650 L690 651 L690 662 L690 662 Z " />
<glyph glyph-name="Udieresis" unicode="&#xdc;" horiz-adv-x="710" d="M453 730 C488 730 512 754 512 789 C512 824 488 847 453 847 C418 847 394 824 394 789 C394 754 418 730 453 730 L453 730 Z M255 730 C290 730 314 754 314 789 C314 824 290 847 255 847 C220 847 196 824 196 789 C196 754 220 730 255 730 L255 730 Z M690 660 L483 660 L483 649 L497 648 C550 646 573 619 573 561 L573 199 C573 99 518 32 375 32 C256 32 210 98 210 197 L210 571 C210 622 229 646 274 648 L285 649 L285 660 L28 660 L28 649 L39 648 C84 646 103 622 103 571 L103 218 C103 84 175 -5 359 -5 C536 -5 605 72 605 188 L605 561 C605 619 627 646 677 648 L690 649 L690 660 L690 660 Z " />
<glyph glyph-name="Yacute" unicode="&#xdd;" horiz-adv-x="676" d="M337 690 C337 690 420 775 451 815 C473 840 488 859 488 865 C488 877 450 905 433 905 C429 905 417 885 402 854 C371 814 326 698 326 698 L337 690 L337 690 Z M209 0 L465 0 L465 11 L454 12 C409 14 390 38 390 89 L390 314 L390 314 L562 571 C597 621 630 646 670 648 L680 649 L680 660 L480 660 L480 649 L495 648 C550 646 561 620 527 564 L378 336 L236 572 C206 622 212 647 260 649 L272 650 L272 661 L6 661 L6 650 L14 649 C48 647 77 623 108 572 L284 282 L285 80 C283 36 264 15 222 13 L211 12 L209 0 L209 0 Z " />
<glyph glyph-name="agrave" unicode="&#xe0;" horiz-adv-x="529" d="M507 53 C498 43 485 36 460 36 C429 36 420 62 420 101 L420 354 C420 445 362 505 274 505 C155 505 67 460 54 393 L150 393 C160 445 201 479 252 479 C292 479 319 438 319 376 L319 262 C289 259 251 254 225 247 C112 219 36 162 36 104 C36 39 88 -5 165 -5 C222 -5 280 15 324 48 C332 12 352 -10 395 -10 C456 -10 492 10 519 40 L507 53 L507 53 Z M155 705 C155 698 170 679 193 655 C224 615 310 530 310 530 L321 538 C321 538 274 653 242 694 C227 725 215 745 210 745 C194 745 155 717 155 705 L155 705 Z M320 237 L320 90 C320 85 320 80 320 75 C291 64 254 57 214 57 C164 57 131 87 131 131 C131 168 168 202 224 216 C257 224 292 231 319 236 L320 237 L320 237 Z " />
<glyph glyph-name="aacute" unicode="&#xe1;" horiz-adv-x="529" d="M207 530 C207 530 290 615 321 655 C343 680 358 699 358 705 C358 717 320 745 303 745 C299 745 287 725 272 694 C241 654 196 538 196 538 L207 530 L207 530 Z M507 53 C498 43 485 36 460 36 C429 36 420 62 420 101 L420 354 C420 445 362 505 274 505 C155 505 67 460 54 393 L150 393 C160 445 201 479 252 479 C292 479 319 438 319 376 L319 262 C289 259 251 254 225 247 C112 219 36 162 36 104 C36 39 88 -5 165 -5 C222 -5 280 15 324 48 C332 12 352 -10 395 -10 C456 -10 492 10 519 40 L507 53 L507 53 Z M320 237 L320 90 C320 85 320 80 320 75 C291 64 254 57 214 57 C164 57 131 87 131 131 C131 168 168 202 224 216 C257 224 292 231 319 236 L320 237 L320 237 Z " />
<glyph glyph-name="acircumflex" unicode="&#xe2;" horiz-adv-x="529" d="M507 53 C498 43 485 36 460 36 C429 36 420 62 420 101 L420 354 C420 445 362 505 274 505 C155 505 67 460 54 393 L150 393 C160 445 201 479 252 479 C292 479 319 438 319 376 L319 262 C289 259 251 254 225 247 C112 219 36 162 36 104 C36 39 88 -5 165 -5 C222 -5 280 15 324 48 C332 12 352 -10 395 -10 C456 -10 492 10 519 40 L507 53 L507 53 Z M269 717 C264 725 252 745 238 745 C224 745 212 726 208 718 C208 718 120 550 112 540 L122 532 C177 598 215 638 238 661 C282 615 354 533 354 533 L364 541 C364 541 314 627 269 718 L269 717 L269 717 Z M207 688 C206 691 206 692 207 692 L207 688 L207 688 Z M320 239 L320 92 C320 87 320 82 320 77 C291 66 254 59 214 59 C164 59 131 89 131 133 C131 170 168 204 224 218 C257 226 292 233 319 238 L320 239 L320 239 Z " />
<glyph glyph-name="atilde" unicode="&#xe3;" horiz-adv-x="529" d="M79 595 C79 630 98 654 126 654 C185 654 263 592 322 592 C375 592 411 642 411 716 L395 716 C395 679 374 655 343 655 C284 655 206 718 147 718 C97 718 63 669 63 595 L79 595 L79 595 Z M507 53 C498 43 485 36 460 36 C429 36 420 62 420 101 L420 354 C420 445 362 505 274 505 C155 505 67 460 54 393 L150 393 C160 445 201 479 252 479 C292 479 319 438 319 376 L319 262 C289 259 251 254 225 247 C112 219 36 162 36 104 C36 39 88 -5 165 -5 C222 -5 280 15 324 48 C332 12 352 -10 395 -10 C456 -10 492 10 519 40 L507 53 L507 53 Z M320 237 L320 90 C320 85 320 80 320 75 C291 64 254 57 214 57 C164 57 131 87 131 131 C131 168 168 202 224 216 C257 224 292 231 319 236 L320 237 L320 237 Z " />
<glyph glyph-name="adieresis" unicode="&#xe4;" horiz-adv-x="529" d="M336 570 C371 570 395 594 395 629 C395 664 371 687 336 687 C301 687 277 664 277 629 C277 594 301 570 336 570 L336 570 Z M138 570 C173 570 197 594 197 629 C197 664 173 687 138 687 C103 687 79 664 79 629 C79 594 103 570 138 570 L138 570 Z M507 53 C498 43 485 36 460 36 C429 36 420 62 420 101 L420 354 C420 445 362 505 274 505 C155 505 67 460 54 393 L150 393 C160 445 201 479 252 479 C292 479 319 438 319 376 L319 262 C289 259 251 254 225 247 C112 219 36 162 36 104 C36 39 88 -5 165 -5 C222 -5 280 15 324 48 C332 12 352 -10 395 -10 C456 -10 492 10 519 40 L507 53 L507 53 Z M320 237 L320 90 C320 85 320 80 320 75 C291 64 254 57 214 57 C164 57 131 87 131 131 C131 168 168 202 224 216 C257 224 292 231 319 236 L320 237 L320 237 Z " />
<glyph glyph-name="aring" unicode="&#xe5;" horiz-adv-x="529" d="M168 628 C168 671 196 699 237 699 C278 699 306 671 306 628 C306 589 274 556 237 556 C200 556 168 589 168 628 L168 628 Z M141 628 C141 578 185 535 237 535 C289 535 333 578 333 628 C333 683 295 720 237 720 C179 720 141 683 141 628 L141 628 Z M507 53 C498 43 485 36 460 36 C429 36 420 62 420 101 L420 354 C420 445 362 505 274 505 C155 505 67 460 54 393 L150 393 C160 445 201 479 252 479 C292 479 319 438 319 376 L319 262 C289 259 251 254 225 247 C112 219 36 162 36 104 C36 39 88 -5 165 -5 C222 -5 280 15 324 48 C332 12 352 -10 395 -10 C456 -10 492 10 519 40 L507 53 L507 53 Z M320 237 L320 90 C320 85 320 80 320 75 C291 64 254 57 214 57 C164 57 131 87 131 131 C131 168 168 202 224 216 C257 224 292 231 319 236 L320 237 L320 237 Z " />
<glyph glyph-name="ccedilla" unicode="&#xe7;" horiz-adv-x="533" d="M227 -76 C254 -30 275 -12 285 -5 C357 -1 435 27 483 68 L474 78 C456 63 405 53 347 53 C231 53 153 139 153 268 C153 394 216 478 311 478 C357 478 390 448 394 404 C396 376 416 357 442 357 C467 357 484 374 484 399 C478 463 414 505 322 505 C159 505 51 395 51 231 C51 93 133 0 257 -5 C251 -16 234 -48 211 -92 L217 -96 C236 -87 261 -81 280 -81 C317 -81 342 -103 342 -136 C342 -170 309 -193 260 -193 C225 -193 195 -188 185 -180 L180 -191 C203 -209 243 -221 280 -221 C353 -221 401 -187 401 -136 C401 -92 361 -62 302 -62 C276 -62 246 -68 227 -77 L227 -76 L227 -76 Z " />
<glyph glyph-name="egrave" unicode="&#xe8;" horiz-adv-x="540" d="M489 68 L480 78 C462 63 410 53 350 53 C216 53 138 160 154 311 L490 311 C490 427 411 505 293 505 C147 505 50 395 50 231 C50 89 138 -5 270 -5 C349 -5 437 24 489 68 L489 68 Z M210 705 C210 698 225 679 248 655 C279 615 365 530 365 530 L376 538 C376 538 329 653 297 694 C282 725 270 745 265 745 C249 745 210 717 210 705 L210 705 Z M354 343 L157 329 C172 420 221 477 289 477 C356 477 401 443 401 391 C401 363 383 344 355 342 L354 343 L354 343 Z " />
<glyph glyph-name="eacute" unicode="&#xe9;" horiz-adv-x="540" d="M263 530 C263 530 346 615 377 655 C399 680 414 699 414 705 C414 717 376 745 359 745 C355 745 343 725 328 694 C297 654 252 538 252 538 L263 530 L263 530 Z M489 68 L480 78 C462 63 410 53 350 53 C216 53 138 160 154 311 L490 311 C490 427 411 505 293 505 C147 505 50 395 50 231 C50 89 138 -5 270 -5 C349 -5 437 24 489 68 L489 68 Z M354 343 L157 329 C172 420 221 477 289 477 C356 477 401 443 401 391 C401 363 383 344 355 342 L354 343 L354 343 Z " />
<glyph glyph-name="ecircumflex" unicode="&#xea;" horiz-adv-x="540" d="M489 68 L480 78 C462 63 410 53 350 53 C216 53 138 160 154 311 L490 311 C490 427 411 505 293 505 C147 505 50 395 50 231 C50 89 138 -5 270 -5 C349 -5 437 24 489 68 L489 68 Z M324 717 C319 725 307 745 293 745 C279 745 267 726 263 718 C263 718 175 550 167 540 L177 532 C232 598 270 638 293 661 C337 615 409 533 409 533 L419 541 C419 541 369 627 324 718 L324 717 L324 717 Z M262 688 C261 691 261 692 262 692 L262 688 L262 688 Z M354 345 L157 331 C172 422 221 479 289 479 C356 479 401 445 401 393 C401 365 383 346 355 344 L354 345 L354 345 Z " />
<glyph glyph-name="edieresis" unicode="&#xeb;" horiz-adv-x="540" d="M392 570 C427 570 451 594 451 629 C451 664 427 687 392 687 C357 687 333 664 333 629 C333 594 357 570 392 570 L392 570 Z M194 570 C229 570 253 594 253 629 C253 664 229 687 194 687 C159 687 135 664 135 629 C135 594 159 570 194 570 L194 570 Z M489 68 L480 78 C462 63 410 53 350 53 C216 53 138 160 154 311 L490 311 C490 427 411 505 293 505 C147 505 50 395 50 231 C50 89 138 -5 270 -5 C349 -5 437 24 489 68 L489 68 Z M354 343 L157 329 C172 420 221 477 289 477 C356 477 401 443 401 391 C401 363 383 344 355 342 L354 343 L354 343 Z " />
<glyph glyph-name="igrave" unicode="&#xec;" horiz-adv-x="336" d="M85 705 C85 698 100 679 123 655 C154 615 240 530 240 530 L251 538 C251 538 204 653 172 694 C157 725 145 745 140 745 C124 745 85 717 85 705 L85 705 Z M291 11 L280 12 C235 14 216 38 216 89 L216 500 L197 500 L45 454 L45 448 L56 445 C119 430 120 428 120 355 L120 89 C120 38 101 14 56 12 L45 11 L45 0 L291 0 L291 11 L291 11 Z " />
<glyph glyph-name="iacute" unicode="&#xed;" horiz-adv-x="336" d="M93 530 C93 530 176 615 207 655 C229 680 244 699 244 705 C244 717 206 745 189 745 C185 745 173 725 158 694 C127 654 82 538 82 538 L93 530 L93 530 Z M291 11 L280 12 C235 14 216 38 216 89 L216 500 L197 500 L45 454 L45 448 L56 445 C119 430 120 428 120 355 L120 89 C120 38 101 14 56 12 L45 11 L45 0 L291 0 L291 11 L291 11 Z " />
<glyph glyph-name="icircumflex" unicode="&#xee;" horiz-adv-x="336" d="M199 717 C194 725 182 745 168 745 C154 745 142 726 138 718 C138 718 50 550 42 540 L52 532 C107 598 145 638 168 661 C212 615 284 533 284 533 L294 541 C294 541 244 627 199 718 L199 717 L199 717 Z M137 688 C136 691 136 692 137 692 L137 688 L137 688 Z M291 13 L280 14 C235 16 216 40 216 91 L216 502 L197 502 L45 456 L45 450 L56 447 C119 432 120 430 120 357 L120 91 C120 40 101 16 56 14 L45 13 L45 2 L291 2 L291 13 L291 13 Z " />
<glyph glyph-name="idieresis" unicode="&#xef;" horiz-adv-x="336" d="M267 570 C302 570 326 594 326 629 C326 664 302 687 267 687 C232 687 208 664 208 629 C208 594 232 570 267 570 L267 570 Z M69 570 C104 570 128 594 128 629 C128 664 104 687 69 687 C34 687 10 664 10 629 C10 594 34 570 69 570 L69 570 Z M291 11 L280 12 C235 14 216 38 216 89 L216 500 L197 500 L45 454 L45 448 L56 445 C119 430 120 428 120 355 L120 89 C120 38 101 14 56 12 L45 11 L45 0 L291 0 L291 11 L291 11 Z " />
<glyph glyph-name="ntilde" unicode="&#xf1;" horiz-adv-x="656" d="M172 595 C172 630 191 654 219 654 C278 654 356 592 415 592 C468 592 504 642 504 716 L488 716 C488 679 467 655 436 655 C377 655 299 718 240 718 C190 718 156 669 156 595 L172 595 L172 595 Z M370 0 L616 0 L616 11 L605 12 C560 14 541 38 541 89 L541 338 C541 438 506 505 417 505 C373 505 294 479 216 439 L216 500 L197 500 L44 454 L44 447 L55 445 C118 430 119 428 119 355 L119 89 C119 38 100 14 55 12 L44 11 L44 0 L291 0 L291 11 L280 12 C235 14 216 38 216 89 L216 428 C242 436 291 441 344 441 C417 441 446 395 446 327 L446 89 C446 38 427 14 382 12 L371 11 L370 0 L370 0 Z " />
<glyph glyph-name="ograve" unicode="&#xf2;" horiz-adv-x="627" d="M157 250 C157 390 220 484 314 484 C408 484 470 390 470 250 C470 110 408 16 314 16 C220 16 157 110 157 250 L157 250 Z M50 250 C50 97 156 -5 314 -5 C472 -5 577 97 577 250 C577 403 472 505 314 505 C156 505 50 403 50 250 L50 250 Z M230 705 C230 698 246 679 269 655 C301 615 387 530 387 530 L398 538 C398 538 350 653 318 694 C303 725 290 745 285 745 C269 745 230 717 230 705 L230 705 Z " />
<glyph glyph-name="oacute" unicode="&#xf3;" horiz-adv-x="627" d="M283 530 C283 530 367 615 398 655 C420 680 435 699 435 705 C435 717 397 745 381 745 C377 745 364 725 349 694 C318 654 272 538 272 538 L283 530 L283 530 Z M157 250 C157 390 220 484 314 484 C408 484 470 390 470 250 C470 110 408 16 314 16 C220 16 157 110 157 250 L157 250 Z M50 250 C50 97 156 -5 314 -5 C472 -5 577 97 577 250 C577 403 472 505 314 505 C156 505 50 403 50 250 L50 250 Z " />
<glyph glyph-name="ocircumflex" unicode="&#xf4;" horiz-adv-x="627" d="M157 250 C157 390 220 484 314 484 C408 484 470 390 470 250 C470 110 408 16 314 16 C220 16 157 110 157 250 L157 250 Z M50 250 C50 97 156 -5 314 -5 C472 -5 577 97 577 250 C577 403 472 505 314 505 C156 505 50 403 50 250 L50 250 Z M344 717 C339 725 327 745 314 745 C299 745 287 726 283 718 C283 718 195 548 188 540 L197 532 C253 598 291 638 314 661 C357 615 429 532 429 532 L438 540 C438 540 388 626 343 717 L344 717 L344 717 Z M282 687 C281 689 281 690 282 690 L282 687 L282 687 Z " />
<glyph glyph-name="otilde" unicode="&#xf5;" horiz-adv-x="627" d="M156 595 C156 630 175 654 203 654 C262 654 340 592 398 592 C451 592 487 642 487 716 L471 716 C471 679 450 655 419 655 C361 655 283 718 224 718 C174 718 140 669 140 595 L156 595 L156 595 Z M157 250 C157 390 220 484 314 484 C408 484 470 390 470 250 C470 110 408 16 314 16 C220 16 157 110 157 250 L157 250 Z M50 250 C50 97 156 -5 314 -5 C472 -5 577 97 577 250 C577 403 472 505 314 505 C156 505 50 403 50 250 L50 250 Z " />
<glyph glyph-name="odieresis" unicode="&#xf6;" horiz-adv-x="627" d="M413 570 C448 570 471 594 471 629 C471 664 448 687 413 687 C378 687 354 664 354 629 C354 594 378 570 413 570 L413 570 Z M214 570 C249 570 273 594 273 629 C273 664 249 687 214 687 C179 687 156 664 156 629 C156 594 179 570 214 570 L214 570 Z M157 250 C157 390 220 484 314 484 C408 484 470 390 470 250 C470 110 408 16 314 16 C220 16 157 110 157 250 L157 250 Z M50 250 C50 97 156 -5 314 -5 C472 -5 577 97 577 250 C577 403 472 505 314 505 C156 505 50 403 50 250 L50 250 Z " />
<glyph glyph-name="oslash" unicode="&#xf8;" horiz-adv-x="627" d="M61 -17 L135 54 C180 16 241 -5 313 -5 C471 -5 576 97 576 250 C576 320 554 379 515 423 L587 493 L565 517 L492 446 C447 484 386 505 314 505 C156 505 50 403 50 250 C50 180 72 121 111 77 L39 7 L61 -17 L61 -17 Z M441 396 L174 137 C163 170 157 208 157 250 C157 390 220 484 314 484 C369 484 413 451 440 395 L441 396 L441 396 Z M453 362 C464 329 470 291 470 249 C470 109 408 15 314 15 C258 15 213 48 186 104 L453 362 L453 362 Z " />
<glyph glyph-name="ugrave" unicode="&#xf9;" horiz-adv-x="621" d="M340 489 L351 488 C396 486 415 462 415 411 L415 80 C398 67 366 59 313 59 C229 59 185 102 185 166 L186 501 L14 501 L14 490 L25 489 C70 487 88 462 89 411 L90 154 C90 59 140 -5 238 -5 C309 -5 368 22 415 64 L415 0 L434 0 L586 46 L586 52 L575 55 C512 70 511 72 511 145 L511 500 L340 500 L340 489 L340 489 Z M217 705 C217 698 232 679 255 655 C286 615 372 530 372 530 L383 538 C383 538 336 653 304 694 C289 725 277 745 272 745 C256 745 217 717 217 705 L217 705 Z " />
<glyph glyph-name="uacute" unicode="&#xfa;" horiz-adv-x="621" d="M270 530 C270 530 353 615 384 655 C406 680 421 699 421 705 C421 717 383 745 366 745 C362 745 350 725 335 694 C304 654 259 538 259 538 L270 530 L270 530 Z M340 489 L351 488 C396 486 415 462 415 411 L415 80 C398 67 366 59 313 59 C229 59 185 102 185 166 L186 501 L14 501 L14 490 L25 489 C70 487 88 462 89 411 L90 154 C90 59 140 -5 238 -5 C309 -5 368 22 415 64 L415 0 L434 0 L586 46 L586 52 L575 55 C512 70 511 72 511 145 L511 500 L340 500 L340 489 L340 489 Z " />
<glyph glyph-name="ucircumflex" unicode="&#xfb;" horiz-adv-x="621" d="M340 489 L351 488 C396 486 415 462 415 411 L415 80 C398 67 366 59 313 59 C229 59 185 102 185 166 L186 501 L14 501 L14 490 L25 489 C70 487 88 462 89 411 L90 154 C90 59 140 -5 238 -5 C309 -5 368 22 415 64 L415 0 L434 0 L586 46 L586 52 L575 55 C512 70 511 72 511 145 L511 500 L340 500 L340 489 L340 489 Z M331 717 C326 725 314 745 300 745 C286 745 274 726 270 718 C270 718 182 550 174 540 L184 532 C239 598 277 638 300 661 C344 615 416 533 416 533 L426 541 C426 541 376 627 331 718 L331 717 L331 717 Z M269 688 C268 691 268 692 269 692 L269 688 L269 688 Z " />
<glyph glyph-name="udieresis" unicode="&#xfc;" horiz-adv-x="621" d="M399 570 C434 570 458 594 458 629 C458 664 434 687 399 687 C364 687 340 664 340 629 C340 594 364 570 399 570 L399 570 Z M201 570 C236 570 260 594 260 629 C260 664 236 687 201 687 C166 687 142 664 142 629 C142 594 166 570 201 570 L201 570 Z M340 489 L351 488 C396 486 415 462 415 411 L415 80 C398 67 366 59 313 59 C229 59 185 102 185 166 L186 501 L14 501 L14 490 L25 489 C70 487 88 462 89 411 L90 154 C90 59 140 -5 238 -5 C309 -5 368 22 415 64 L415 0 L434 0 L586 46 L586 52 L575 55 C512 70 511 72 511 145 L511 500 L340 500 L340 489 L340 489 Z " />
<glyph glyph-name="ydieresis" unicode="&#xff;" horiz-adv-x="543" d="M394 570 C429 570 452 594 452 629 C452 664 429 687 394 687 C359 687 335 664 335 629 C335 594 359 570 394 570 L394 570 Z M195 570 C230 570 254 594 254 629 C254 664 230 687 195 687 C160 687 137 664 137 629 C137 594 160 570 195 570 L195 570 Z M600 500 L423 500 L423 489 L433 488 C471 486 482 465 467 422 L338 107 L201 424 C186 466 196 486 233 488 L243 489 L243 500 L-11 500 L-11 489 L0 488 C46 486 76 461 99 410 L283 4 C276 -10 264 -35 254 -63 C221 -138 193 -167 155 -167 C155 -167 96 -142 70 -142 C41 -142 22 -158 22 -182 C22 -211 52 -230 96 -230 C178 -230 229 -186 279 -72 C291 -37 306 -10 306 -10 L491 411 C514 462 543 486 589 488 L600 489 L600 500 L600 500 Z " />
<glyph glyph-name="Amacron" unicode="&#x100;" horiz-adv-x="711" d="M174 764 L500 764 L500 817 L174 817 L174 764 L174 764 Z M-3 0 L213 0 L213 11 L197 12 C137 14 119 40 139 98 L188 233 L430 233 L491 89 C513 37 500 14 449 12 L424 11 L424 0 L706 0 L706 11 C658 11 634 28 607 89 L350 675 L324 675 L98 78 C79 34 51 13 9 11 L-3 10 L-3 0 L-3 0 Z M418 259 L198 259 L300 537 L418 259 L418 259 Z " />
<glyph glyph-name="amacron" unicode="&#x101;" horiz-adv-x="529" d="M74 604 L400 604 L400 657 L74 657 L74 604 L74 604 Z M507 53 C498 43 485 36 460 36 C429 36 420 62 420 101 L420 354 C420 445 362 505 274 505 C155 505 67 460 54 393 L150 393 C160 445 201 479 252 479 C292 479 319 438 319 376 L319 262 C289 259 251 254 225 247 C112 219 36 162 36 104 C36 39 88 -5 165 -5 C222 -5 280 15 324 48 C332 12 352 -10 395 -10 C456 -10 492 10 519 40 L507 53 L507 53 Z M320 237 L320 90 C320 85 320 80 320 75 C291 64 254 57 214 57 C164 57 131 87 131 131 C131 168 168 202 224 216 C257 224 292 231 319 236 L320 237 L320 237 Z " />
<glyph glyph-name="Abreve" unicode="&#x102;" horiz-adv-x="711" d="M197 871 C223 795 279 745 337 745 C395 745 451 795 477 870 L461 876 C447 836 397 809 337 809 C277 809 227 836 213 876 L197 871 L197 871 Z M-3 0 L213 0 L213 11 L197 12 C137 14 119 40 139 98 L188 233 L430 233 L491 89 C513 37 500 14 449 12 L424 11 L424 0 L706 0 L706 11 C658 11 634 28 607 89 L350 675 L324 675 L98 78 C79 34 51 13 9 11 L-3 10 L-3 0 L-3 0 Z M418 259 L198 259 L300 537 L418 259 L418 259 Z " />
<glyph glyph-name="abreve" unicode="&#x103;" horiz-adv-x="529" d="M97 681 C123 605 179 555 237 555 C295 555 351 605 377 680 L361 686 C347 646 297 619 237 619 C177 619 127 646 113 686 L97 681 L97 681 Z M507 53 C498 43 485 36 460 36 C429 36 420 62 420 101 L420 354 C420 445 362 505 274 505 C155 505 67 460 54 393 L150 393 C160 445 201 479 252 479 C292 479 319 438 319 376 L319 262 C289 259 251 254 225 247 C112 219 36 162 36 104 C36 39 88 -5 165 -5 C222 -5 280 15 324 48 C332 12 352 -10 395 -10 C456 -10 492 10 519 40 L507 53 L507 53 Z M320 237 L320 90 C320 85 320 80 320 75 C291 64 254 57 214 57 C164 57 131 87 131 131 C131 168 168 202 224 216 C257 224 292 231 319 236 L320 237 L320 237 Z " />
<glyph glyph-name="Aogonek" unicode="&#x104;" horiz-adv-x="711" d="M-3 0 L213 0 L213 11 L197 12 C137 14 119 40 139 98 L188 233 L430 233 L491 89 C513 37 500 14 449 12 L424 11 L424 0 L489 0 C435 -35 365 -101 365 -156 C365 -204 416 -236 493 -236 C528 -236 562 -224 578 -205 L571 -197 C565 -204 542 -209 514 -209 C460 -209 424 -184 424 -146 C424 -82 498 -12 529 -1 L706 -1 L706 10 C658 10 634 27 607 88 L350 674 L324 674 L98 77 C79 33 51 12 9 10 L-3 9 L-3 0 L-3 0 Z M418 258 L198 258 L300 536 L418 258 L418 258 Z " />
<glyph glyph-name="aogonek" unicode="&#x105;" horiz-adv-x="529" d="M480 38 C435 28 420 52 420 101 L420 354 C420 445 362 505 274 505 C155 505 67 460 54 393 L150 393 C160 445 201 479 252 479 C292 479 319 438 319 376 L319 262 C289 259 251 254 225 247 C112 219 36 162 36 104 C36 39 88 -5 165 -5 C222 -5 280 15 324 48 C334 3 364 -14 421 -8 C382 -44 348 -90 348 -132 C348 -193 399 -234 476 -234 C511 -234 545 -222 561 -203 L554 -195 C548 -202 525 -207 497 -207 C443 -207 407 -173 407 -122 C407 -74 442 -24 474 6 C493 15 508 27 521 41 L513 50 L513 54 C512 54 511 54 510 54 L509 55 C504 49 492 46 483 40 L480 38 L480 38 Z M322 239 L322 92 C322 87 322 82 322 77 C293 66 256 59 216 59 C166 59 133 89 133 133 C133 170 170 204 226 218 C259 226 294 233 321 238 L322 239 L322 239 Z " />
<glyph glyph-name="Cacute" unicode="&#x106;" horiz-adv-x="739" d="M370 690 C370 690 453 775 484 815 C506 840 521 859 521 865 C521 877 483 905 466 905 C462 905 450 885 435 854 C404 814 359 698 359 698 L370 690 L370 690 Z M679 457 L679 606 C618 641 512 665 415 665 C195 665 48 531 48 330 C48 129 195 -5 415 -5 C512 -5 618 19 679 54 L679 203 L670 203 C666 192 660 177 656 166 C626 86 543 28 449 23 C438 22 427 22 416 22 C266 22 166 145 166 330 C166 515 266 638 416 638 C422 638 492 636 492 633 C563 624 629 569 657 494 C661 483 667 468 671 457 L679 457 L679 457 Z " />
<glyph glyph-name="cacute" unicode="&#x107;" horiz-adv-x="533" d="M246 530 C246 530 329 615 360 655 C382 680 397 699 397 705 C397 717 359 745 342 745 C338 745 326 725 311 694 C280 654 235 538 235 538 L246 530 L246 530 Z M482 68 L473 78 C455 63 404 53 346 53 C230 53 152 139 152 268 C152 394 215 478 310 478 C356 478 389 448 393 404 C395 376 415 357 441 357 C466 357 483 374 483 399 C477 463 413 505 321 505 C158 505 50 395 50 231 C50 89 136 -5 266 -5 C343 -5 430 24 482 68 L482 68 Z " />
<glyph glyph-name="Ccircumflex" unicode="&#x108;" horiz-adv-x="739" d="M679 457 L679 606 C618 641 512 665 415 665 C195 665 48 531 48 330 C48 129 195 -5 415 -5 C512 -5 618 19 679 54 L679 203 L670 203 C666 192 660 177 656 166 C626 86 543 28 449 23 C438 22 427 22 416 22 C266 22 166 145 166 330 C166 515 266 638 416 638 C422 638 492 636 492 633 C563 624 629 569 657 494 C661 483 667 468 671 457 L679 457 L679 457 Z M447 877 C442 885 430 905 416 905 C402 905 390 886 386 878 C386 878 298 710 290 700 L300 692 C355 758 393 798 416 821 C460 775 532 693 532 693 L542 701 C542 701 492 787 447 878 L447 877 L447 877 Z M385 848 C384 851 384 852 385 852 L385 848 L385 848 Z " />
<glyph glyph-name="Cdot" unicode="&#x10a;" horiz-adv-x="739" d="M415 730 C450 730 474 754 474 789 C474 824 450 847 415 847 C380 847 356 824 356 789 C356 754 380 730 415 730 L415 730 Z M679 457 L679 606 C618 641 512 665 415 665 C195 665 48 531 48 330 C48 129 195 -5 415 -5 C512 -5 618 19 679 54 L679 203 L670 203 C666 192 660 177 656 166 C626 86 543 28 449 23 C438 22 427 22 416 22 C266 22 166 145 166 330 C166 515 266 638 416 638 C422 638 492 636 492 633 C563 624 629 569 657 494 C661 483 667 468 671 457 L679 457 L679 457 Z " />
<glyph glyph-name="cdot" unicode="&#x10b;" horiz-adv-x="533" d="M321 570 C356 570 380 594 380 629 C380 664 356 687 321 687 C286 687 262 664 262 629 C262 594 286 570 321 570 L321 570 Z M482 68 L473 78 C455 63 404 53 346 53 C230 53 152 139 152 268 C152 394 215 478 310 478 C356 478 389 448 393 404 C395 376 415 357 441 357 C466 357 483 374 483 399 C477 463 413 505 321 505 C158 505 50 395 50 231 C50 89 136 -5 266 -5 C343 -5 430 24 482 68 L482 68 Z " />
<glyph glyph-name="Ccaron" unicode="&#x10c;" horiz-adv-x="739" d="M531 928 C531 928 459 846 415 800 C392 823 354 863 299 929 L289 921 C297 911 385 743 385 743 C389 735 401 716 415 716 C429 716 441 736 446 744 C491 835 541 921 541 921 L531 928 L531 928 Z M679 458 L679 607 C618 642 512 666 415 666 C195 666 48 532 48 331 C48 130 195 -4 415 -4 C512 -4 618 20 679 55 L679 204 L670 204 C666 193 660 178 656 167 C626 87 543 29 449 24 C438 23 427 23 416 23 C266 23 166 146 166 331 C166 516 266 639 416 639 C422 639 492 637 492 634 C563 625 629 570 657 495 C661 484 667 469 671 458 L679 458 L679 458 Z M385 771 C384 771 384 772 385 775 L385 771 L385 771 Z " />
<glyph glyph-name="ccaron" unicode="&#x10d;" horiz-adv-x="533" d="M437 768 C437 768 365 686 321 640 C298 663 260 703 205 769 L195 761 C203 751 291 583 291 583 C295 575 307 556 321 556 C335 556 347 576 352 584 C397 675 447 761 447 761 L437 768 L437 768 Z M482 69 L473 79 C455 64 404 54 346 54 C230 54 152 140 152 269 C152 395 215 479 310 479 C356 479 389 449 393 405 C395 377 415 358 441 358 C466 358 483 375 483 400 C477 464 413 506 321 506 C158 506 50 396 50 232 C50 90 136 -4 266 -4 C343 -4 430 25 482 69 L482 69 Z M290 611 C289 611 289 612 290 615 L290 611 L290 611 Z " />
<glyph glyph-name="Dcaron" unicode="&#x10e;" horiz-adv-x="760" d="M475 928 C475 928 403 845 360 799 C337 822 299 862 243 928 L234 920 C241 912 329 742 329 742 C333 734 345 715 360 715 C373 715 385 735 390 743 C435 834 485 920 485 920 L475 928 L475 928 Z M329 770 C328 770 328 771 329 773 L329 770 L329 770 Z M39 649 L50 648 C95 646 114 622 114 571 L114 89 C114 38 95 14 50 12 L39 11 L39 0 L384 0 C580 0 711 132 711 330 C711 528 564 660 343 660 L39 660 L39 649 L39 649 Z M221 27 L221 633 L343 633 C500 633 605 512 605 330 C605 148 517 27 384 27 L221 27 L221 27 Z " />
<glyph glyph-name="dcaron" unicode="&#x10f;" horiz-adv-x="631" d="M646 752 C626 752 608 689 600 643 L568 479 L580 475 L660 622 C688 672 706 722 706 730 C706 746 664 752 646 752 L646 752 Z M521 720 L502 720 L350 674 L350 668 L361 665 C424 650 425 648 425 575 L425 456 C393 485 347 505 297 505 C151 505 54 391 54 221 C54 85 136 -5 259 -5 C318 -5 382 18 425 54 L425 0 L444 0 L596 46 L596 52 L585 55 C522 70 521 72 521 145 L521 720 L521 720 Z M425 70 C408 60 364 54 311 54 C217 54 155 135 155 257 C155 390 210 479 292 479 C349 479 400 452 426 416 L425 70 L425 70 Z " />
<glyph glyph-name="Emacron" unicode="&#x112;" horiz-adv-x="651" d="M157 764 L482 764 L482 817 L157 817 L157 764 L157 764 Z M471 254 L471 440 L462 440 L458 429 C442 384 407 365 339 365 L222 365 L222 633 L375 633 C451 633 496 600 522 524 L531 498 L539 498 L539 660 L40 660 L40 649 L51 648 C96 646 115 622 115 571 L115 89 C115 38 96 14 51 12 L40 11 L40 0 L539 0 L541 13 L542 13 C550 58 560 117 568 162 L560 162 L546 136 C506 60 455 27 379 27 L222 27 L222 339 L339 339 C407 339 443 317 458 267 L462 254 L471 254 L471 254 Z " />
<glyph glyph-name="emacron" unicode="&#x113;" horiz-adv-x="540" d="M130 604 L456 604 L456 657 L130 657 L130 604 L130 604 Z M489 68 L480 78 C462 63 410 53 350 53 C216 53 138 160 154 311 L490 311 C490 427 411 505 293 505 C147 505 50 395 50 231 C50 89 138 -5 270 -5 C349 -5 437 24 489 68 L489 68 Z M354 343 L157 329 C172 420 221 477 289 477 C356 477 401 443 401 391 C401 363 383 344 355 342 L354 343 L354 343 Z " />
<glyph glyph-name="Ebreve" unicode="&#x114;" horiz-adv-x="651" d="M179 871 C205 795 262 745 320 745 C378 745 434 795 460 870 L444 876 C430 836 380 809 320 809 C259 809 209 836 195 876 L179 871 L179 871 Z M471 254 L471 440 L462 440 L458 429 C442 384 407 365 339 365 L222 365 L222 633 L375 633 C451 633 496 600 522 524 L531 498 L539 498 L539 660 L40 660 L40 649 L51 648 C96 646 115 622 115 571 L115 89 C115 38 96 14 51 12 L40 11 L40 0 L539 0 L541 13 L542 13 C550 58 560 117 568 162 L560 162 L546 136 C506 60 455 27 379 27 L222 27 L222 339 L339 339 C407 339 443 317 458 267 L462 254 L471 254 L471 254 Z " />
<glyph glyph-name="ebreve" unicode="&#x115;" horiz-adv-x="540" d="M153 711 C179 635 235 585 293 585 C351 585 407 635 433 710 L417 716 C403 676 353 649 293 649 C233 649 183 676 169 716 L153 711 L153 711 Z M489 68 L480 78 C462 63 410 53 350 53 C216 53 138 160 154 311 L490 311 C490 427 411 505 293 505 C147 505 50 395 50 231 C50 89 138 -5 270 -5 C349 -5 437 24 489 68 L489 68 Z M354 343 L157 329 C172 420 221 477 289 477 C356 477 401 443 401 391 C401 363 383 344 355 342 L354 343 L354 343 Z " />
<glyph glyph-name="Edot" unicode="&#x116;" horiz-adv-x="651" d="M320 730 C355 730 378 754 378 789 C378 824 355 847 320 847 C285 847 261 824 261 789 C261 754 285 730 320 730 L320 730 Z M471 254 L471 440 L462 440 L458 429 C442 384 407 365 339 365 L222 365 L222 633 L375 633 C451 633 496 600 522 524 L531 498 L539 498 L539 660 L40 660 L40 649 L51 648 C96 646 115 622 115 571 L115 89 C115 38 96 14 51 12 L40 11 L40 0 L539 0 L541 13 L542 13 C550 58 560 117 568 162 L560 162 L546 136 C506 60 455 27 379 27 L222 27 L222 339 L339 339 C407 339 443 317 458 267 L462 254 L471 254 L471 254 Z " />
<glyph glyph-name="edot" unicode="&#x117;" horiz-adv-x="540" d="M293 570 C328 570 352 594 352 629 C352 664 328 687 293 687 C258 687 234 664 234 629 C234 594 258 570 293 570 L293 570 Z M489 68 L480 78 C462 63 410 53 350 53 C216 53 138 160 154 311 L490 311 C490 427 411 505 293 505 C147 505 50 395 50 231 C50 89 138 -5 270 -5 C349 -5 437 24 489 68 L489 68 Z M354 343 L157 329 C172 420 221 477 289 477 C356 477 401 443 401 391 C401 363 383 344 355 342 L354 343 L354 343 Z " />
<glyph glyph-name="Eogonek" unicode="&#x118;" horiz-adv-x="651" d="M471 254 L471 440 L462 440 L458 429 C442 384 407 365 339 365 L222 365 L222 633 L375 633 C451 633 496 600 522 524 L531 498 L539 498 L539 660 L40 660 L40 649 L51 648 C96 646 115 622 115 571 L115 89 C115 38 96 14 51 12 L40 11 L40 0 L495 0 C441 -35 371 -101 371 -156 C371 -204 422 -236 499 -236 C534 -236 568 -224 584 -205 L577 -197 C571 -204 548 -209 520 -209 C466 -209 430 -184 430 -146 C430 -82 504 -12 535 -1 L539 -1 L541 12 L542 12 C550 57 560 116 568 161 L560 161 L546 135 C506 59 455 26 379 26 L222 26 L222 338 L339 338 C407 338 443 316 458 266 L462 253 L471 254 L471 254 Z " />
<glyph glyph-name="eogonek" unicode="&#x119;" horiz-adv-x="540" d="M354 343 L157 329 C172 420 221 477 289 477 C356 477 401 443 401 391 C401 363 383 344 355 342 L354 343 L354 343 Z M155 310 L491 310 C491 426 412 504 294 504 C148 504 51 394 51 230 C51 69 161 -26 324 -2 C274 -39 219 -97 219 -147 C219 -200 270 -236 347 -236 C382 -236 416 -224 432 -205 L425 -197 C419 -204 396 -209 368 -209 C314 -209 278 -180 278 -137 C278 -74 346 -5 379 10 C422 23 462 43 491 67 L482 77 C464 62 412 52 352 52 C218 52 140 159 156 310 L155 310 L155 310 Z " />
<glyph glyph-name="Ecaron" unicode="&#x11a;" horiz-adv-x="651" d="M436 928 C436 928 364 845 321 799 C298 822 260 862 204 928 L195 920 C202 912 290 742 290 742 C294 734 306 715 321 715 C334 715 346 735 351 743 C396 834 446 920 446 920 L436 928 L436 928 Z M290 770 C289 770 289 771 290 773 L290 770 L290 770 Z M472 254 L472 440 L463 440 L459 429 C443 384 408 365 340 365 L223 365 L223 633 L376 633 C452 633 497 600 523 524 L532 498 L540 498 L540 660 L41 660 L41 649 L52 648 C97 646 116 622 116 571 L116 89 C116 38 97 14 52 12 L41 11 L41 0 L540 0 L542 13 L543 13 C551 58 561 117 569 162 L561 162 L547 136 C507 60 456 27 380 27 L223 27 L223 339 L340 339 C408 339 444 317 459 267 L463 254 L472 254 L472 254 Z " />
<glyph glyph-name="ecaron" unicode="&#x11b;" horiz-adv-x="540" d="M409 768 C409 768 337 686 293 640 C270 663 232 703 177 769 L167 761 C175 751 263 583 263 583 C267 575 279 556 293 556 C307 556 319 576 324 584 C369 675 419 761 419 761 L409 768 L409 768 Z M489 69 L480 79 C462 64 410 54 350 54 C216 54 138 161 154 312 L490 312 C490 428 411 506 293 506 C147 506 50 396 50 232 C50 90 138 -4 270 -4 C349 -4 437 25 489 69 L489 69 Z M262 611 C261 611 261 612 262 615 L262 611 L262 611 Z M354 345 L157 331 C172 422 221 479 289 479 C356 479 401 445 401 393 C401 365 383 346 355 344 L354 345 L354 345 Z " />
<glyph glyph-name="Gcircumflex" unicode="&#x11c;" horiz-adv-x="834" d="M436 877 C431 885 419 905 405 905 C391 905 379 886 375 878 C375 878 287 710 279 700 L289 692 C344 758 382 798 405 821 C449 775 521 693 521 693 L531 701 C531 701 481 787 436 878 L436 877 L436 877 Z M374 848 C373 851 373 852 374 852 L374 848 L374 848 Z M659 459 L659 608 C598 643 496 667 405 667 C191 667 48 533 48 332 C48 131 191 -3 405 -3 C499 -3 603 21 664 56 L664 223 C664 274 683 298 728 300 L739 301 L739 312 L493 312 L493 301 L504 300 C549 298 568 274 568 223 L568 47 C518 33 460 25 405 25 C261 25 165 148 165 333 C165 518 261 641 405 641 C410 641 470 640 470 637 C541 629 608 573 636 497 C640 486 646 471 650 460 L659 459 L659 459 Z " />
<glyph glyph-name="Gbreve" unicode="&#x11e;" horiz-adv-x="834" d="M265 871 C291 795 347 745 405 745 C463 745 519 795 545 870 L529 876 C515 836 465 809 405 809 C345 809 295 836 281 876 L265 871 L265 871 Z M659 457 L659 606 C598 641 496 665 405 665 C191 665 48 531 48 330 C48 129 191 -5 405 -5 C499 -5 603 19 664 54 L664 221 C664 272 683 296 728 298 L739 299 L739 310 L493 310 L493 299 L504 298 C549 296 568 272 568 221 L568 45 C518 31 460 23 405 23 C261 23 165 146 165 331 C165 516 261 639 405 639 C410 639 470 638 470 635 C541 627 608 571 636 495 C640 484 646 469 650 458 L659 457 L659 457 Z " />
<glyph glyph-name="gbreve" unicode="&#x11f;" horiz-adv-x="501" d="M106 711 C132 635 188 585 246 585 C304 585 360 635 386 710 L370 716 C356 676 306 649 246 649 C186 649 136 676 122 716 L106 711 L106 711 Z M501 500 C454 492 407 485 361 477 C330 495 291 505 246 505 C133 505 58 442 58 347 C58 279 96 227 159 203 C89 195 44 154 44 96 C44 48 82 13 143 -1 C68 -22 20 -70 20 -127 C20 -196 85 -242 183 -242 C362 -242 482 -159 482 -35 C482 38 407 87 294 87 C283 87 200 83 200 83 C146 83 110 103 110 133 C110 167 140 189 185 189 L247 189 C360 189 435 252 435 347 C435 384 423 416 402 442 L501 447 L501 500 L501 500 Z M246 210 C188 210 149 265 149 347 C149 429 188 484 246 484 C305 484 344 429 344 347 C344 265 305 210 246 210 L246 210 Z M172 -5 C201 -8 225 -5 267 -5 C354 -5 412 -36 412 -83 C412 -162 324 -215 193 -215 C127 -215 83 -175 83 -116 C83 -62 118 -19 172 -5 L172 -5 Z " />
<glyph glyph-name="Gdot" unicode="&#x120;" horiz-adv-x="834" d="M405 730 C440 730 464 754 464 789 C464 824 440 847 405 847 C370 847 346 824 346 789 C346 754 370 730 405 730 L405 730 Z M659 457 L659 606 C598 641 496 665 405 665 C191 665 48 531 48 330 C48 129 191 -5 405 -5 C499 -5 603 19 664 54 L664 221 C664 272 683 296 728 298 L739 299 L739 310 L493 310 L493 299 L504 298 C549 296 568 272 568 221 L568 45 C518 31 460 23 405 23 C261 23 165 146 165 331 C165 516 261 639 405 639 C410 639 470 638 470 635 C541 627 608 571 636 495 C640 484 646 469 650 458 L659 457 L659 457 Z " />
<glyph glyph-name="gdot" unicode="&#x121;" horiz-adv-x="501" d="M246 570 C281 570 305 594 305 629 C305 664 281 687 246 687 C211 687 187 664 187 629 C187 594 211 570 246 570 L246 570 Z M501 500 C454 492 407 485 361 477 C330 495 291 505 246 505 C133 505 58 442 58 347 C58 279 96 227 159 203 C89 195 44 154 44 96 C44 48 82 13 143 -1 C68 -22 20 -70 20 -127 C20 -196 85 -242 183 -242 C362 -242 482 -159 482 -35 C482 38 407 87 294 87 C283 87 200 83 200 83 C146 83 110 103 110 133 C110 167 140 189 185 189 L247 189 C360 189 435 252 435 347 C435 384 423 416 402 442 L501 447 L501 500 L501 500 Z M246 210 C188 210 149 265 149 347 C149 429 188 484 246 484 C305 484 344 429 344 347 C344 265 305 210 246 210 L246 210 Z M172 -5 C201 -8 225 -5 267 -5 C354 -5 412 -36 412 -83 C412 -162 324 -215 193 -215 C127 -215 83 -175 83 -116 C83 -62 118 -19 172 -5 L172 -5 Z " />
<glyph glyph-name="Hcircumflex" unicode="&#x124;" horiz-adv-x="807" d="M434 877 C429 885 417 905 404 905 C389 905 377 886 373 878 C373 878 285 708 278 700 L287 692 C343 758 381 798 404 821 C447 775 519 692 519 692 L528 700 C528 700 478 786 433 877 L434 877 L434 877 Z M372 847 C371 849 371 850 372 850 L372 847 L372 847 Z M766 11 L755 12 C710 14 691 38 691 89 L691 571 C691 622 710 646 755 648 L766 649 L766 660 L509 660 L509 649 L520 648 C565 646 584 622 584 571 L584 360 L221 360 L221 571 C221 622 240 646 285 648 L296 649 L296 660 L39 660 L39 649 L50 648 C95 646 114 622 114 571 L114 89 C114 38 95 14 50 12 L39 11 L39 0 L296 0 L296 11 L285 12 C240 14 221 38 221 89 L221 334 L584 334 L584 89 C584 38 565 14 520 12 L509 11 L509 0 L766 0 L766 11 L766 11 Z " />
<glyph glyph-name="Itilde" unicode="&#x128;" horiz-adv-x="337" d="M10 755 C10 790 29 814 57 814 C116 814 194 752 253 752 C306 752 342 802 342 876 L326 876 C326 839 305 815 274 815 C215 815 137 878 78 878 C28 878 -6 829 -6 755 L10 755 L10 755 Z M297 11 L286 12 C241 14 222 38 222 89 L222 571 C222 622 241 646 286 648 L297 649 L297 660 L40 660 L40 649 L51 648 C96 646 115 622 115 571 L115 89 C115 38 96 14 51 12 L40 11 L40 0 L297 0 L297 11 L297 11 Z " />
<glyph glyph-name="itilde" unicode="&#x129;" horiz-adv-x="336" d="M10 595 C10 630 29 654 57 654 C116 654 194 592 253 592 C306 592 342 642 342 716 L326 716 C326 679 305 655 274 655 C215 655 137 718 78 718 C28 718 -6 669 -6 595 L10 595 L10 595 Z M291 11 L280 12 C235 14 216 38 216 89 L216 500 L197 500 L45 454 L45 448 L56 445 C119 430 120 428 120 355 L120 89 C120 38 101 14 56 12 L45 11 L45 0 L291 0 L291 11 L291 11 Z " />
<glyph glyph-name="Imacron" unicode="&#x12a;" horiz-adv-x="337" d="M5 764 L331 764 L331 817 L5 817 L5 764 L5 764 Z M297 11 L286 12 C241 14 222 38 222 89 L222 571 C222 622 241 646 286 648 L297 649 L297 660 L40 660 L40 649 L51 648 C96 646 115 622 115 571 L115 89 C115 38 96 14 51 12 L40 11 L40 0 L297 0 L297 11 L297 11 Z " />
<glyph glyph-name="imacron" unicode="&#x12b;" horiz-adv-x="336" d="M5 604 L331 604 L331 657 L5 657 L5 604 L5 604 Z M291 11 L280 12 C235 14 216 38 216 89 L216 500 L197 500 L45 454 L45 448 L56 445 C119 430 120 428 120 355 L120 89 C120 38 101 14 56 12 L45 11 L45 0 L291 0 L291 11 L291 11 Z " />
<glyph glyph-name="Ibreve" unicode="&#x12c;" horiz-adv-x="337" d="M28 871 C54 795 110 745 168 745 C226 745 282 795 308 870 L292 876 C278 836 228 809 168 809 C108 809 58 836 44 876 L28 871 L28 871 Z M297 11 L286 12 C241 14 222 38 222 89 L222 571 C222 622 241 646 286 648 L297 649 L297 660 L40 660 L40 649 L51 648 C96 646 115 622 115 571 L115 89 C115 38 96 14 51 12 L40 11 L40 0 L297 0 L297 11 L297 11 Z " />
<glyph glyph-name="ibreve" unicode="&#x12d;" horiz-adv-x="336" d="M28 711 C54 635 110 585 168 585 C226 585 282 635 308 710 L292 716 C278 676 228 649 168 649 C108 649 58 676 44 716 L28 711 L28 711 Z M291 11 L280 12 C235 14 216 38 216 89 L216 500 L197 500 L45 454 L45 448 L56 445 C119 430 120 428 120 355 L120 89 C120 38 101 14 56 12 L45 11 L45 0 L291 0 L291 11 L291 11 Z " />
<glyph glyph-name="Idot" unicode="&#x130;" horiz-adv-x="337" d="M168 730 C203 730 227 754 227 789 C227 824 203 847 168 847 C133 847 109 824 109 789 C109 754 133 730 168 730 L168 730 Z M297 11 L286 12 C241 14 222 38 222 89 L222 571 C222 622 241 646 286 648 L297 649 L297 660 L40 660 L40 649 L51 648 C96 646 115 622 115 571 L115 89 C115 38 96 14 51 12 L40 11 L40 0 L297 0 L297 11 L297 11 Z " />
<glyph glyph-name="dotlessi" unicode="&#x131;" horiz-adv-x="336" d="M291 11 L280 12 C235 14 216 38 216 89 L216 500 L197 500 L45 454 L45 448 L56 445 C119 430 120 428 120 355 L120 89 C120 38 101 14 56 12 L45 11 L45 0 L291 0 L291 11 L291 11 Z " />
<glyph glyph-name="Jcircumflex" unicode="&#x134;" horiz-adv-x="429" d="M291 877 C286 885 274 905 261 905 C246 905 234 886 230 878 C230 878 142 708 135 700 L144 692 C200 758 238 798 261 821 C304 775 376 692 376 692 L385 700 C385 700 335 786 290 877 L291 877 L291 877 Z M229 847 C228 849 228 850 229 850 L229 847 L229 847 Z M388 660 L131 660 L131 649 L142 648 C187 646 206 622 206 571 L206 200 C206 64 189 11 147 11 C118 11 95 28 89 53 C83 78 64 95 41 95 C10 95 -7 78 -1 53 C8 15 57 -10 121 -10 C259 -10 313 74 313 290 L313 571 C313 622 332 646 377 648 L388 649 L388 660 L388 660 Z " />
<glyph glyph-name="Lacute" unicode="&#x139;" horiz-adv-x="651" d="M145 690 C145 690 229 775 260 815 C282 840 297 859 297 865 C297 877 259 905 243 905 C239 905 226 885 211 854 C180 814 134 698 134 698 L145 690 L145 690 Z M556 177 L533 126 C502 57 459 27 390 27 L222 27 L222 571 C222 622 241 646 286 648 L297 649 L297 660 L40 660 L40 649 L51 648 C96 646 115 622 115 571 L115 89 C115 38 96 14 51 12 L40 11 L40 0 L540 0 L542 13 L542 13 C550 60 561 122 569 169 C569 173 556 177 556 177 L556 177 Z " />
<glyph glyph-name="Lcaron" unicode="&#x13d;" horiz-adv-x="651" d="M422 692 C402 692 384 629 376 583 L344 419 L356 415 L436 562 C464 612 482 662 482 670 C482 686 440 692 422 692 L422 692 Z M556 177 L533 126 C502 57 459 27 390 27 L222 27 L222 571 C222 622 241 646 286 648 L297 649 L297 660 L40 660 L40 649 L51 648 C96 646 115 622 115 571 L115 89 C115 38 96 14 51 12 L40 11 L40 0 L540 0 L542 13 L542 13 C550 60 561 122 569 169 C569 173 556 177 556 177 L556 177 Z " />
<glyph glyph-name="lcaron" unicode="&#x13e;" horiz-adv-x="336" d="M341 722 C321 722 303 659 295 613 L263 449 L275 445 L355 592 C383 642 401 692 401 700 C401 716 359 722 341 722 L341 722 Z M291 11 L280 12 C235 14 216 38 216 89 L216 720 L197 720 L45 674 L45 668 L56 665 C119 650 120 648 120 575 L120 89 C120 38 101 14 56 12 L45 11 L45 0 L291 0 L291 11 L291 11 Z " />
<glyph glyph-name="Lslash" unicode="&#x141;" horiz-adv-x="651" d="M40 0 L540 0 L542 13 L542 13 C550 60 561 122 569 169 C569 173 556 177 556 177 L533 126 C502 57 459 27 390 27 L222 27 L222 314 L379 364 L379 396 L222 346 L222 571 C222 622 241 646 286 648 L297 649 L297 660 L40 660 L40 649 L51 648 C96 646 115 622 115 571 L115 312 L65 296 L65 264 L115 280 L115 89 C115 38 96 14 51 12 L40 11 L40 0 L40 0 Z " />
<glyph glyph-name="lslash" unicode="&#x142;" horiz-adv-x="336" d="M45 0 L291 0 L291 11 L280 12 C235 14 216 38 216 89 L216 360 L316 394 L316 426 L216 392 L216 720 L197 720 L45 674 L45 668 L56 665 C119 650 120 648 120 575 L120 360 L20 326 L20 294 L120 328 L120 89 C120 38 101 14 56 12 L45 11 L45 0 L45 0 Z " />
<glyph glyph-name="Nacute" unicode="&#x143;" horiz-adv-x="742" d="M340 690 C340 690 424 775 455 815 C477 840 492 859 492 865 C492 877 454 905 438 905 C434 905 421 885 406 854 C375 814 329 698 329 698 L340 690 L340 690 Z M39 649 L50 648 C95 646 114 622 114 571 L114 89 C114 38 95 14 50 12 L39 11 L39 0 L221 0 L221 11 L210 12 C165 14 146 38 146 89 L146 568 C296 372 446 176 595 -20 L627 -20 L627 571 C627 622 646 646 691 648 L702 649 L702 660 L520 660 L520 649 L531 648 C576 646 595 622 595 571 L595 153 L210 660 L39 660 L39 649 L39 649 Z M146 616 L146 616 L146 616 Z " />
<glyph glyph-name="nacute" unicode="&#x144;" horiz-adv-x="656" d="M255 530 C255 530 338 615 369 655 C391 680 406 699 406 705 C406 717 368 745 351 745 C347 745 335 725 320 694 C289 654 244 538 244 538 L255 530 L255 530 Z M370 0 L616 0 L616 11 L605 12 C560 14 541 38 541 89 L541 338 C541 438 506 505 417 505 C373 505 294 479 216 439 L216 500 L197 500 L44 454 L44 447 L55 445 C118 430 119 428 119 355 L119 89 C119 38 100 14 55 12 L44 11 L44 0 L291 0 L291 11 L280 12 C235 14 216 38 216 89 L216 428 C242 436 291 441 344 441 C417 441 446 395 446 327 L446 89 C446 38 427 14 382 12 L371 11 L370 0 L370 0 Z " />
<glyph glyph-name="Ncaron" unicode="&#x147;" horiz-adv-x="742" d="M487 928 C487 928 415 845 372 799 C349 822 311 862 255 928 L246 920 C253 912 341 742 341 742 C345 734 357 715 372 715 C385 715 397 735 402 743 C447 834 497 920 497 920 L487 928 L487 928 Z M341 770 C340 770 340 771 341 773 L341 770 L341 770 Z M40 649 L51 648 C96 646 115 622 115 571 L115 89 C115 38 96 14 51 12 L40 11 L40 0 L222 0 L222 11 L211 12 C166 14 147 38 147 89 L147 568 C297 372 447 176 596 -20 L628 -20 L628 571 C628 622 647 646 692 648 L703 649 L703 660 L521 660 L521 649 L532 648 C577 646 596 622 596 571 L596 153 L211 660 L40 660 L40 649 L40 649 Z M147 616 L147 616 L147 616 Z " />
<glyph glyph-name="ncaron" unicode="&#x148;" horiz-adv-x="656" d="M446 768 C446 768 374 686 330 640 C307 663 269 703 214 769 L204 761 C212 751 300 583 300 583 C304 575 316 556 330 556 C344 556 356 576 361 584 C406 675 456 761 456 761 L446 768 L446 768 Z M299 611 C298 611 298 612 299 615 L299 611 L299 611 Z M370 2 L616 2 L616 13 L605 14 C560 16 541 40 541 91 L541 340 C541 440 506 507 417 507 C373 507 294 481 216 441 L216 502 L197 502 L44 456 L44 449 L55 447 C118 432 119 430 119 357 L119 91 C119 40 100 16 55 14 L44 13 L44 2 L291 2 L291 13 L280 14 C235 16 216 40 216 91 L216 430 C242 438 291 443 344 443 C417 443 446 397 446 329 L446 91 C446 40 427 16 382 14 L371 13 L370 2 L370 2 Z " />
<glyph glyph-name="Omacron" unicode="&#x14c;" horiz-adv-x="785" d="M229 764 L554 764 L554 817 L229 817 L229 764 L229 764 Z M165 330 C165 496 242 638 392 638 C541 638 617 496 617 330 C617 164 541 22 392 22 C242 22 165 164 165 330 L165 330 Z M48 330 C48 149 165 -5 392 -5 C618 -5 735 149 735 330 C735 511 618 665 392 665 C165 665 48 511 48 330 L48 330 Z " />
<glyph glyph-name="omacron" unicode="&#x14d;" horiz-adv-x="627" d="M151 604 L476 604 L476 657 L151 657 L151 604 L151 604 Z M157 250 C157 390 220 484 314 484 C408 484 470 390 470 250 C470 110 408 16 314 16 C220 16 157 110 157 250 L157 250 Z M50 250 C50 97 156 -5 314 -5 C472 -5 577 97 577 250 C577 403 472 505 314 505 C156 505 50 403 50 250 L50 250 Z " />
<glyph glyph-name="Obreve" unicode="&#x14e;" horiz-adv-x="785" d="M251 871 C277 795 334 745 392 745 C450 745 506 795 532 870 L516 876 C502 836 452 809 392 809 C331 809 281 836 267 876 L251 871 L251 871 Z M165 330 C165 496 242 638 392 638 C541 638 617 496 617 330 C617 164 541 22 392 22 C242 22 165 164 165 330 L165 330 Z M48 330 C48 149 165 -5 392 -5 C618 -5 735 149 735 330 C735 511 618 665 392 665 C165 665 48 511 48 330 L48 330 Z " />
<glyph glyph-name="obreve" unicode="&#x14f;" horiz-adv-x="627" d="M173 711 C199 635 256 585 314 585 C372 585 428 635 454 710 L438 716 C424 676 374 649 314 649 C253 649 203 676 189 716 L173 711 L173 711 Z M157 250 C157 390 220 484 314 484 C408 484 470 390 470 250 C470 110 408 16 314 16 C220 16 157 110 157 250 L157 250 Z M50 250 C50 97 156 -5 314 -5 C472 -5 577 97 577 250 C577 403 472 505 314 505 C156 505 50 403 50 250 L50 250 Z " />
<glyph glyph-name="Racute" unicode="&#x154;" horiz-adv-x="706" d="M279 690 C279 690 362 775 393 815 C415 840 430 859 430 865 C430 877 392 905 375 905 C371 905 359 885 344 854 C313 814 268 698 268 698 L279 690 L279 690 Z M38 649 L49 648 C94 646 113 622 113 571 L113 89 C113 38 94 14 49 12 L38 11 L38 0 L295 0 L295 11 L284 12 C239 14 220 38 220 89 L220 313 L310 313 C338 276 394 202 466 107 C543 5 551 1 667 1 L705 1 L705 22 C662 22 661 23 612 87 C523 205 457 290 430 324 C531 347 594 408 594 490 C594 592 500 660 359 660 L37 660 L38 649 L38 649 Z M331 340 L219 340 L219 633 L359 633 C433 633 482 576 482 490 C482 400 422 340 331 340 L331 340 Z " />
<glyph glyph-name="Rcaron" unicode="&#x158;" horiz-adv-x="706" d="M470 928 C470 928 398 846 354 800 C331 823 293 863 238 929 L228 921 C236 911 324 743 324 743 C328 735 340 716 354 716 C368 716 380 736 385 744 C430 835 480 921 480 921 L470 928 L470 928 Z M38 650 L49 649 C94 647 113 623 113 572 L113 90 C113 39 94 15 49 13 L38 12 L38 1 L295 1 L295 12 L284 13 C239 15 220 39 220 90 L220 314 L310 314 C338 277 394 203 466 108 C543 6 551 2 667 2 L705 2 L705 23 C662 23 661 24 612 88 C523 206 457 291 430 325 C531 348 594 409 594 491 C594 593 500 661 359 661 L37 661 L38 650 L38 650 Z M322 771 C321 771 321 772 322 775 L322 771 L322 771 Z M331 342 L219 342 L219 635 L359 635 C433 635 482 578 482 492 C482 402 422 342 331 342 L331 342 Z " />
<glyph glyph-name="rcaron" unicode="&#x159;" horiz-adv-x="456" d="M356 768 C356 768 284 686 240 640 C217 663 179 703 124 769 L114 761 C122 751 210 583 210 583 C214 575 226 556 240 556 C254 556 266 576 271 584 C316 675 366 761 366 761 L356 768 L356 768 Z M209 611 C208 611 208 612 209 615 L209 611 L209 611 Z M44 449 L55 447 C118 432 119 430 119 357 L119 91 C119 40 100 16 55 14 L44 13 L44 2 L291 2 L291 13 L280 14 C235 16 216 40 216 91 L216 416 C233 429 258 437 284 437 C319 437 365 400 400 400 C428 400 446 418 446 446 C446 483 422 508 361 508 C313 508 257 478 216 432 L216 503 L197 503 L44 457 L44 449 L44 449 Z " />
<glyph glyph-name="Sacute" unicode="&#x15a;" horiz-adv-x="536" d="M216 690 C216 690 299 775 330 815 C352 840 367 859 367 865 C367 877 329 905 312 905 C308 905 296 885 281 854 C250 814 205 698 205 698 L216 690 L216 690 Z M450 461 L450 618 L441 602 L441 602 L450 618 C401 646 328 665 266 665 C132 665 43 585 43 466 C43 389 115 318 224 288 C339 256 416 196 416 139 C416 69 356 22 267 22 C264 22 231 23 231 24 C159 30 92 86 63 162 C59 173 53 188 49 199 L40 199 L40 42 C89 14 180 -5 267 -5 C401 -5 491 70 491 183 C491 266 417 341 307 372 C192 404 116 459 116 509 C116 587 174 639 261 639 C262 639 310 635 309 633 C352 624 393 587 410 540 C419 516 431 485 440 461 L450 461 L450 461 Z " />
<glyph glyph-name="sacute" unicode="&#x15b;" horiz-adv-x="446" d="M163 530 C163 530 246 615 277 655 C299 680 314 699 314 705 C314 717 276 745 259 745 C255 745 243 725 228 694 C197 654 152 538 152 538 L163 530 L163 530 Z M375 360 L375 464 L367 450 L367 450 L375 464 C332 489 278 505 238 505 C128 505 54 450 54 367 C54 313 116 253 208 216 C273 190 316 149 316 113 C316 55 276 17 215 17 C214 17 198 17 198 18 C144 22 92 62 66 119 C62 127 58 137 54 145 L46 145 L46 31 C83 9 149 -5 210 -5 C322 -5 396 56 396 148 C396 201 348 255 276 284 C188 319 129 365 129 400 C129 450 173 484 238 484 C246 484 258 481 272 476 C317 457 351 412 366 360 L375 360 L375 360 Z " />
<glyph glyph-name="Scircumflex" unicode="&#x15c;" horiz-adv-x="536" d="M292 877 C287 885 275 905 261 905 C247 905 235 886 231 878 C231 878 143 710 135 700 L145 692 C200 758 238 798 261 821 C305 775 377 693 377 693 L387 701 C387 701 337 787 292 878 L292 877 L292 877 Z M230 848 C229 851 229 852 230 852 L230 848 L230 848 Z M450 463 L450 620 L441 604 L441 604 L450 620 C401 648 328 667 266 667 C132 667 43 587 43 468 C43 391 115 320 224 290 C339 258 416 198 416 141 C416 71 356 24 267 24 C264 24 231 25 231 26 C159 32 92 88 63 164 C59 175 53 190 49 201 L40 201 L40 44 C89 16 180 -3 267 -3 C401 -3 491 72 491 185 C491 268 417 343 307 374 C192 406 116 461 116 511 C116 589 174 641 261 641 C262 641 310 637 309 635 C352 626 393 589 410 542 C419 518 431 487 440 463 L450 463 L450 463 Z " />
<glyph glyph-name="Scedilla" unicode="&#x15e;" horiz-adv-x="536" d="M450 461 L450 618 L441 602 L441 602 L450 618 C401 646 328 665 266 665 C132 665 43 585 43 466 C43 389 115 318 224 288 C339 256 416 196 416 139 C416 69 356 22 267 22 C264 22 231 23 231 24 C159 30 92 86 63 162 C59 173 53 188 49 199 L40 199 L40 42 C87 15 173 -4 257 -5 C251 -16 234 -48 211 -92 L217 -96 C236 -87 261 -81 280 -81 C317 -81 342 -103 342 -136 C342 -170 309 -193 260 -193 C225 -193 195 -188 185 -180 L180 -191 C203 -209 243 -221 280 -221 C353 -221 401 -187 401 -136 C401 -92 361 -62 302 -62 C276 -62 246 -68 227 -77 C254 -31 274 -13 284 -6 C408 0 490 73 490 181 C490 264 416 339 306 370 C191 402 115 457 115 507 C115 585 173 637 260 637 C261 637 309 633 308 631 C351 622 392 585 409 538 C418 514 430 483 439 459 L450 461 L450 461 Z " />
<glyph glyph-name="scedilla" unicode="&#x15f;" horiz-adv-x="446" d="M375 360 L375 464 L367 450 L367 450 L375 464 C332 489 278 505 238 505 C128 505 54 450 54 367 C54 313 116 253 208 216 C273 190 316 149 316 113 C316 55 276 17 215 17 C214 17 198 17 198 18 C144 22 92 62 66 119 C62 127 58 137 54 145 L46 145 L46 31 C81 10 142 -4 200 -5 C194 -16 177 -48 154 -92 L160 -96 C179 -87 204 -81 223 -81 C260 -81 285 -103 285 -136 C285 -170 252 -193 203 -193 C168 -193 138 -188 128 -180 L123 -191 C146 -209 186 -221 223 -221 C296 -221 344 -187 344 -136 C344 -92 304 -62 245 -62 C219 -62 189 -68 170 -77 C197 -31 218 -13 228 -6 C330 0 396 59 396 146 C396 199 348 253 276 282 C188 317 129 363 129 398 C129 448 173 482 238 482 C246 482 258 479 272 474 C317 455 351 410 366 358 L375 360 L375 360 Z " />
<glyph glyph-name="Scaron" unicode="&#x160;" horiz-adv-x="536" d="M377 928 C377 928 305 846 261 800 C238 823 200 863 145 929 L135 921 C143 911 231 743 231 743 C235 735 247 716 261 716 C275 716 287 736 292 744 C337 835 387 921 387 921 L377 928 L377 928 Z M230 771 C229 771 229 772 230 775 L230 771 L230 771 Z M450 463 L450 620 L441 604 L441 604 L450 620 C401 648 328 667 266 667 C132 667 43 587 43 468 C43 391 115 320 224 290 C339 258 416 198 416 141 C416 71 356 24 267 24 C264 24 231 25 231 26 C159 32 92 88 63 164 C59 175 53 190 49 201 L40 201 L40 44 C89 16 180 -3 267 -3 C401 -3 491 72 491 185 C491 268 417 343 307 374 C192 406 116 461 116 511 C116 589 174 641 261 641 C262 641 310 637 309 635 C352 626 393 589 410 542 C419 518 431 487 440 463 L450 463 L450 463 Z " />
<glyph glyph-name="scaron" unicode="&#x161;" horiz-adv-x="446" d="M354 768 C354 768 282 686 238 640 C215 663 177 703 122 769 L112 761 C120 751 208 583 208 583 C212 575 224 556 238 556 C252 556 264 576 269 584 C314 675 364 761 364 761 L354 768 L354 768 Z M207 611 C206 611 206 612 207 615 L207 611 L207 611 Z M375 362 L375 466 L367 452 L367 452 L375 466 C332 491 278 507 238 507 C128 507 54 452 54 369 C54 315 116 255 208 218 C273 192 316 151 316 115 C316 57 276 19 215 19 C214 19 198 19 198 20 C144 24 92 64 66 121 C62 129 58 139 54 147 L46 147 L46 33 C83 11 149 -3 210 -3 C322 -3 396 58 396 150 C396 203 348 257 276 286 C188 321 129 367 129 402 C129 452 173 486 238 486 C246 486 258 483 272 478 C317 459 351 414 366 362 L375 362 L375 362 Z " />
<glyph glyph-name="Tcaron" unicode="&#x164;" horiz-adv-x="645" d="M438 928 C438 928 366 846 322 800 C299 823 261 863 206 929 L196 921 C204 911 292 743 292 743 C296 735 308 716 322 716 C336 716 348 736 353 744 C398 835 448 921 448 921 L438 928 L438 928 Z M291 771 C290 771 290 772 291 775 L291 771 L291 771 Z M8 485 L34 546 C61 608 99 635 161 635 L269 635 L269 91 C269 40 250 16 205 14 L194 13 L194 2 L451 2 L451 13 L440 14 C395 16 376 40 376 91 L376 635 L483 635 C546 635 584 608 610 546 L636 485 L645 485 C641 534 635 600 631 649 L630 662 L14 662 L13 649 C11 649 0 497 -1 485 L8 485 L8 485 Z " />
<glyph glyph-name="tcaron" unicode="&#x165;" horiz-adv-x="377" d="M25 474 L25 463 L99 463 L99 116 C99 22 122 -5 205 -5 C275 -5 320 16 357 47 L350 55 C338 45 313 38 253 38 C208 38 195 51 195 99 L195 463 L345 463 L345 500 L195 500 L195 640 L179 640 C139 550 76 482 25 474 L25 474 Z M470 722 C450 722 432 659 424 613 L392 449 L404 445 L484 592 C512 642 530 692 530 700 C530 716 488 722 470 722 L470 722 Z " />
<glyph glyph-name="Utilde" unicode="&#x168;" horiz-adv-x="710" d="M196 755 C196 790 215 814 243 814 C302 814 380 752 439 752 C492 752 528 802 528 876 L512 876 C512 839 491 815 460 815 C401 815 323 878 264 878 C214 878 180 829 180 755 L196 755 L196 755 Z M690 660 L483 660 L483 649 L497 648 C550 646 573 619 573 561 L573 199 C573 99 518 32 375 32 C256 32 210 98 210 197 L210 571 C210 622 229 646 274 648 L285 649 L285 660 L28 660 L28 649 L39 648 C84 646 103 622 103 571 L103 218 C103 84 175 -5 359 -5 C536 -5 605 72 605 188 L605 561 C605 619 627 646 677 648 L690 649 L690 660 L690 660 Z " />
<glyph glyph-name="utilde" unicode="&#x169;" horiz-adv-x="621" d="M142 595 C142 630 161 654 189 654 C248 654 326 592 385 592 C438 592 474 642 474 716 L458 716 C458 679 437 655 406 655 C347 655 269 718 210 718 C160 718 126 669 126 595 L142 595 L142 595 Z M340 489 L351 488 C396 486 415 462 415 411 L415 80 C398 67 366 59 313 59 C229 59 185 102 185 166 L186 501 L14 501 L14 490 L25 489 C70 487 88 462 89 411 L90 154 C90 59 140 -5 238 -5 C309 -5 368 22 415 64 L415 0 L434 0 L586 46 L586 52 L575 55 C512 70 511 72 511 145 L511 500 L340 500 L340 489 L340 489 Z " />
<glyph glyph-name="Umacron" unicode="&#x16a;" horiz-adv-x="710" d="M191 764 L517 764 L517 817 L191 817 L191 764 L191 764 Z M690 660 L483 660 L483 649 L497 648 C550 646 573 619 573 561 L573 199 C573 99 518 32 375 32 C256 32 210 98 210 197 L210 571 C210 622 229 646 274 648 L285 649 L285 660 L28 660 L28 649 L39 648 C84 646 103 622 103 571 L103 218 C103 84 175 -5 359 -5 C536 -5 605 72 605 188 L605 561 C605 619 627 646 677 648 L690 649 L690 660 L690 660 Z " />
<glyph glyph-name="umacron" unicode="&#x16b;" horiz-adv-x="621" d="M137 604 L463 604 L463 657 L137 657 L137 604 L137 604 Z M340 489 L351 488 C396 486 415 462 415 411 L415 80 C398 67 366 59 313 59 C229 59 185 102 185 166 L186 501 L14 501 L14 490 L25 489 C70 487 88 462 89 411 L90 154 C90 59 140 -5 238 -5 C309 -5 368 22 415 64 L415 0 L434 0 L586 46 L586 52 L575 55 C512 70 511 72 511 145 L511 500 L340 500 L340 489 L340 489 Z " />
<glyph glyph-name="Ubreve" unicode="&#x16c;" horiz-adv-x="710" d="M214 871 C240 795 296 745 354 745 C412 745 468 795 494 870 L478 876 C464 836 414 809 354 809 C294 809 244 836 230 876 L214 871 L214 871 Z M690 660 L483 660 L483 649 L497 648 C550 646 573 619 573 561 L573 199 C573 99 518 32 375 32 C256 32 210 98 210 197 L210 571 C210 622 229 646 274 648 L285 649 L285 660 L28 660 L28 649 L39 648 C84 646 103 622 103 571 L103 218 C103 84 175 -5 359 -5 C536 -5 605 72 605 188 L605 561 C605 619 627 646 677 648 L690 649 L690 660 L690 660 Z " />
<glyph glyph-name="ubreve" unicode="&#x16d;" horiz-adv-x="621" d="M160 711 C186 635 242 585 300 585 C358 585 414 635 440 710 L424 716 C410 676 360 649 300 649 C240 649 190 676 176 716 L160 711 L160 711 Z M340 489 L351 488 C396 486 415 462 415 411 L415 80 C398 67 366 59 313 59 C229 59 185 102 185 166 L186 501 L14 501 L14 490 L25 489 C70 487 88 462 89 411 L90 154 C90 59 140 -5 238 -5 C309 -5 368 22 415 64 L415 0 L434 0 L586 46 L586 52 L575 55 C512 70 511 72 511 145 L511 500 L340 500 L340 489 L340 489 Z " />
<glyph glyph-name="Uring" unicode="&#x16e;" horiz-adv-x="710" d="M285 788 C285 831 313 859 354 859 C395 859 423 831 423 788 C423 749 391 716 354 716 C317 716 285 749 285 788 L285 788 Z M258 788 C258 738 302 695 354 695 C406 695 450 738 450 788 C450 843 412 880 354 880 C296 880 258 843 258 788 L258 788 Z M690 660 L483 660 L483 649 L497 648 C550 646 573 619 573 561 L573 199 C573 99 518 32 375 32 C256 32 210 98 210 197 L210 571 C210 622 229 646 274 648 L285 649 L285 660 L28 660 L28 649 L39 648 C84 646 103 622 103 571 L103 218 C103 84 175 -5 359 -5 C536 -5 605 72 605 188 L605 561 C605 619 627 646 677 648 L690 649 L690 660 L690 660 Z " />
<glyph glyph-name="uring" unicode="&#x16f;" horiz-adv-x="621" d="M231 628 C231 671 259 699 300 699 C341 699 369 671 369 628 C369 589 337 556 300 556 C263 556 231 589 231 628 L231 628 Z M204 628 C204 578 248 535 300 535 C352 535 396 578 396 628 C396 683 358 720 300 720 C242 720 204 683 204 628 L204 628 Z M340 489 L351 488 C396 486 415 462 415 411 L415 80 C398 67 366 59 313 59 C229 59 185 102 185 166 L186 501 L14 501 L14 490 L25 489 C70 487 88 462 89 411 L90 154 C90 59 140 -5 238 -5 C309 -5 368 22 415 64 L415 0 L434 0 L586 46 L586 52 L575 55 C512 70 511 72 511 145 L511 500 L340 500 L340 489 L340 489 Z " />
<glyph glyph-name="Wcircumflex" unicode="&#x174;" horiz-adv-x="1038" d="M1034 660 L826 660 L826 649 L852 648 C904 646 918 623 902 571 L719 -15 L746 -15 L934 571 C951 621 977 646 1022 648 L1033 649 L1034 660 L1034 660 Z M261 660 L-3 660 L-3 649 L6 648 C43 646 67 622 87 571 L312 -15 L338 -15 L561 670 L534 670 L361 136 L200 581 C186 625 201 646 248 648 L261 649 L261 660 L261 660 Z M578 877 C573 885 561 905 548 905 C533 905 521 886 517 878 C517 878 429 708 422 700 L431 692 C487 758 525 798 548 821 C591 775 663 692 663 692 L672 700 C672 700 622 786 577 877 L578 877 L578 877 Z M516 847 C515 849 515 850 516 850 L516 847 L516 847 Z M718 -15 L768 146 L560 670 L505 500 L718 -15 L718 -15 Z " />
<glyph glyph-name="Ycircumflex" unicode="&#x176;" horiz-adv-x="676" d="M209 0 L465 0 L465 11 L454 12 C409 14 390 38 390 89 L390 314 L390 314 L562 571 C597 621 630 646 670 648 L680 649 L680 660 L480 660 L480 649 L495 648 C550 646 561 620 527 564 L378 336 L236 572 C206 622 212 647 260 649 L272 650 L272 661 L6 661 L6 650 L14 649 C48 647 77 623 108 572 L284 282 L285 80 C283 36 264 15 222 13 L211 12 L209 0 L209 0 Z M370 878 C365 886 353 906 339 906 C325 906 313 887 309 879 C309 879 221 711 213 701 L223 693 C278 759 316 799 339 822 C383 776 455 694 455 694 L465 702 C465 702 415 788 370 879 L370 878 L370 878 Z M308 849 C307 852 307 853 308 853 L308 849 L308 849 Z " />
<glyph glyph-name="Ydieresis" unicode="&#x178;" horiz-adv-x="676" d="M436 730 C471 730 495 754 495 789 C495 824 471 847 436 847 C401 847 377 824 377 789 C377 754 401 730 436 730 L436 730 Z M238 730 C273 730 297 754 297 789 C297 824 273 847 238 847 C203 847 179 824 179 789 C179 754 203 730 238 730 L238 730 Z M209 0 L465 0 L465 11 L454 12 C409 14 390 38 390 89 L390 314 L390 314 L562 571 C597 621 630 646 670 648 L680 649 L680 660 L480 660 L480 649 L495 648 C550 646 561 620 527 564 L378 336 L236 572 C206 622 212 647 260 649 L272 650 L272 661 L6 661 L6 650 L14 649 C48 647 77 623 108 572 L284 282 L285 80 C283 36 264 15 222 13 L211 12 L209 0 L209 0 Z " />
<glyph glyph-name="Zacute" unicode="&#x179;" horiz-adv-x="618" d="M336 690 C336 690 420 775 451 815 C473 840 488 859 488 865 C488 877 450 905 434 905 C430 905 417 885 402 854 C371 814 325 698 325 698 L336 690 L336 690 Z M544 178 L521 127 C490 58 447 28 378 28 L175 28 L555 660 L92 660 L88 646 L89 646 C78 606 64 553 53 513 L62 513 L83 544 C127 606 172 633 234 633 L417 633 L38 0 L528 0 L530 14 C538 61 549 123 557 170 C557 174 544 178 544 178 L544 178 Z " />
<glyph glyph-name="zacute" unicode="&#x17a;" horiz-adv-x="509" d="M201 530 C201 530 285 615 316 655 C338 680 353 699 353 705 C353 717 315 745 299 745 C295 745 282 725 267 694 C236 654 190 538 190 538 L201 530 L201 530 Z M451 172 L428 121 C397 52 353 23 285 22 L169 22 L459 501 L70 501 L67 490 C59 460 48 419 40 389 L49 389 L60 403 C104 456 150 479 213 479 L335 479 L43 1 L436 1 L438 12 L437 12 C445 58 456 119 464 165 C464 169 451 173 451 173 L451 172 L451 172 Z " />
<glyph glyph-name="Zdot" unicode="&#x17b;" horiz-adv-x="618" d="M337 730 C372 730 395 754 395 789 C395 824 372 847 337 847 C302 847 278 824 278 789 C278 754 302 730 337 730 L337 730 Z M544 178 L521 127 C490 58 447 28 378 28 L175 28 L555 660 L92 660 L88 646 L89 646 C78 606 64 553 53 513 L62 513 L83 544 C127 606 172 633 234 633 L417 633 L38 0 L528 0 L530 14 C538 61 549 123 557 170 C557 174 544 178 544 178 L544 178 Z " />
<glyph glyph-name="zdot" unicode="&#x17c;" horiz-adv-x="509" d="M278 570 C313 570 336 594 336 629 C336 664 313 687 278 687 C243 687 219 664 219 629 C219 594 243 570 278 570 L278 570 Z M451 172 L428 121 C397 52 353 23 285 22 L169 22 L459 501 L70 501 L67 490 C59 460 48 419 40 389 L49 389 L60 403 C104 456 150 479 213 479 L335 479 L43 1 L436 1 L438 12 L437 12 C445 58 456 119 464 165 C464 169 451 173 451 173 L451 172 L451 172 Z " />
<glyph glyph-name="Zcaron" unicode="&#x17d;" horiz-adv-x="618" d="M453 928 C453 928 381 845 338 799 C315 822 277 862 221 928 L212 920 C219 912 307 742 307 742 C311 734 323 715 338 715 C351 715 363 735 368 743 C413 834 463 920 463 920 L453 928 L453 928 Z M307 770 C306 770 306 771 307 773 L307 770 L307 770 Z M545 178 L522 127 C491 58 448 28 379 28 L176 28 L556 660 L93 660 L89 646 L90 646 C79 606 65 553 54 513 L63 513 L84 544 C128 606 173 633 235 633 L418 633 L39 0 L529 0 L531 14 C539 61 550 123 558 170 C558 174 545 178 545 178 L545 178 Z " />
<glyph glyph-name="zcaron" unicode="&#x17e;" horiz-adv-x="509" d="M394 768 C394 768 322 685 279 639 C256 662 218 702 162 768 L153 760 C160 752 248 582 248 582 C252 574 264 555 279 555 C292 555 304 575 309 583 C354 674 404 760 404 760 L394 768 L394 768 Z M452 172 L429 121 C398 52 354 23 286 22 L170 22 L460 501 L71 501 L68 490 C60 460 49 419 41 389 L50 389 L61 403 C105 456 151 479 214 479 L336 479 L44 1 L437 1 L439 12 L438 12 C446 58 457 119 465 165 C465 169 452 173 452 173 L452 172 L452 172 Z M248 611 C247 611 247 612 248 614 L248 611 L248 611 Z " />
<glyph glyph-name="oogonek" unicode="&#x1eb;" horiz-adv-x="717" d="M738 -21 L729 -14 C718 -27 664 -36 594 -36 C477 -36 407 -24 372 -5 C566 1 666 129 666 278 C666 430 561 559 358 559 C155 559 50 430 50 278 C50 132 146 7 332 -3 C395 -61 477 -98 582 -98 C635 -98 697 -67 736 -20 L738 -21 L738 -21 Z M154 278 C154 417 223 535 357 535 C491 535 560 417 560 278 C560 139 491 20 357 20 C223 20 154 139 154 278 L154 278 Z " />
<glyph glyph-name="Adotabove" unicode="&#x226;" horiz-adv-x="711" d="M337 730 C372 730 396 754 396 789 C396 824 372 847 337 847 C302 847 278 824 278 789 C278 754 302 730 337 730 L337 730 Z M-3 0 L213 0 L213 11 L197 12 C137 14 119 40 139 98 L188 233 L430 233 L491 89 C513 37 500 14 449 12 L424 11 L424 0 L706 0 L706 11 C658 11 634 28 607 89 L350 675 L324 675 L98 78 C79 34 51 13 9 11 L-3 10 L-3 0 L-3 0 Z M418 259 L198 259 L300 537 L418 259 L418 259 Z " />
<glyph glyph-name="G_sc" unicode="&#x262;" horiz-adv-x="762" d="M587 352 L587 499 L581 488 L581 488 L587 499 C526 534 437 558 365 558 C177 558 51 446 51 277 C51 108 177 -5 365 -5 C439 -5 530 19 592 55 L592 171 C592 222 611 246 656 248 L667 249 L667 260 L431 260 L431 249 L442 248 C487 246 506 222 506 171 L506 43 C460 28 409 19 364 19 C239 19 155 122 155 277 C155 431 239 534 364 534 C378 534 393 533 408 531 C475 519 535 464 563 389 C567 378 573 363 577 352 L587 352 L587 352 Z " />
<glyph glyph-name="I_sc" unicode="&#x26a;" horiz-adv-x="331" d="M291 11 L280 12 C235 14 216 38 216 89 L216 464 C216 515 235 539 280 541 L291 542 L291 553 L45 553 L45 542 L56 541 C101 539 120 515 120 464 L120 89 C120 38 101 14 56 12 L45 11 L45 0 L291 0 L291 11 L291 11 Z " />
<glyph glyph-name="N_sc" unicode="&#x274;" horiz-adv-x="672" d="M40 542 L51 541 C96 539 115 515 115 464 L115 89 C115 38 96 14 51 12 L40 11 L40 0 L219 0 L219 11 L208 12 C163 14 144 38 144 89 L144 470 C272 307 400 144 529 -19 L557 -19 L557 464 C557 515 576 539 621 541 L632 542 L632 553 L453 553 L453 542 L464 541 C509 539 528 515 528 464 L528 137 L201 553 L40 553 L40 542 L40 542 Z " />
<glyph glyph-name="R_sc" unicode="&#x280;" horiz-adv-x="631" d="M41 542 L52 541 C97 539 116 515 116 464 L116 89 C116 38 97 14 52 12 L41 11 L41 0 L287 0 L287 11 L276 12 C231 14 212 38 212 89 L212 262 L266 262 L400 106 C488 4 496 0 597 0 L631 0 L631 19 C590 19 590 20 531 88 C454 177 397 244 373 272 C460 292 514 343 514 412 C514 497 429 553 302 553 L41 553 L41 542 L41 542 Z M284 286 L212 286 L212 529 L302 529 C369 529 414 482 414 412 C414 336 362 286 284 286 L284 286 Z " />
<glyph glyph-name="Y_sc" unicode="&#x28f;" horiz-adv-x="598" d="M261 553 L8 553 L8 542 L16 541 C49 539 76 518 106 473 L253 235 L252 89 C251 39 233 14 188 12 L177 11 L177 0 L424 0 L424 11 L413 12 C368 14 349 38 349 89 L349 268 L349 268 L483 464 C518 515 551 539 591 541 L601 542 L601 553 L405 553 L405 542 L420 541 C476 539 485 512 448 454 L331 280 L223 464 C193 515 201 539 249 541 L261 542 L261 553 L261 553 Z " />
<glyph glyph-name="B_sc" unicode="&#x299;" horiz-adv-x="584" d="M41 542 L52 541 C97 539 116 515 116 464 L116 89 C116 38 97 14 52 12 L41 11 L41 0 L324 0 C468 0 564 62 564 154 C564 230 491 285 375 300 C459 318 511 363 511 423 C511 502 428 554 303 554 L42 554 L41 542 L41 542 Z M213 305 L213 530 L303 530 C370 530 415 487 415 423 C415 352 363 305 285 305 L213 305 L213 305 Z M213 285 L280 285 C391 285 465 233 465 155 C465 77 405 25 315 25 L213 25 L213 285 L213 285 Z " />
<glyph glyph-name="H_sc" unicode="&#x29c;" horiz-adv-x="740" d="M700 11 L689 12 C644 14 625 38 625 89 L625 464 C625 515 644 539 689 541 L700 542 L700 553 L454 553 L454 542 L465 541 C510 539 529 515 529 464 L529 305 L214 305 L214 464 C214 515 233 539 278 541 L289 542 L289 553 L43 553 L43 542 L54 541 C99 539 118 515 118 464 L118 89 C118 38 99 14 54 12 L43 11 L43 0 L289 0 L289 11 L278 12 C233 14 214 38 214 89 L214 281 L529 281 L529 89 C529 38 510 14 465 12 L454 11 L454 0 L700 0 L700 11 L700 11 Z " />
<glyph glyph-name="L_sc" unicode="&#x29f;" horiz-adv-x="592" d="M497 174 L474 123 C443 54 400 24 331 24 L214 24 L214 464 C214 515 233 539 278 541 L289 542 L289 553 L43 553 L43 542 L54 541 C99 539 118 515 118 464 L118 89 C118 38 99 14 54 12 L43 11 L43 0 L480 0 L482 12 L483 12 C491 58 502 120 510 166 C510 170 497 174 497 174 L497 174 Z " />
<glyph glyph-name="circumflex" unicode="&#x2c6;" horiz-adv-x="371" d="M217 717 C212 725 200 745 186 745 C171 745 159 726 155 718 C155 718 67 548 60 540 L70 532 C125 598 163 638 186 661 C230 615 302 533 302 533 L312 541 C312 541 262 627 217 718 L217 717 L217 717 Z M155 688 C154 690 154 691 155 691 L155 688 L155 688 Z " />
<glyph glyph-name="caron" unicode="&#x2c7;" horiz-adv-x="371" d="M302 768 C302 768 230 686 186 640 C163 663 125 703 70 769 L60 761 C67 753 155 583 155 583 C159 575 171 556 186 556 C200 556 212 576 217 584 C262 675 312 761 312 761 L302 768 L302 768 Z M155 611 C154 611 154 612 155 614 L155 611 L155 611 Z " />
<glyph glyph-name="firsttonechinese" unicode="&#x2c9;" horiz-adv-x="371" d="M23 604 L349 604 L349 657 L23 657 L23 604 L23 604 Z " />
<glyph glyph-name="breve" unicode="&#x2d8;" horiz-adv-x="371" d="M46 711 C72 635 128 585 186 585 C244 585 300 635 326 710 L310 716 C296 676 246 649 186 649 C126 649 76 676 62 716 L46 711 L46 711 Z " />
<glyph glyph-name="dotaccent" unicode="&#x2d9;" horiz-adv-x="371" d="M186 570 C221 570 245 594 245 629 C245 664 221 687 186 687 C151 687 127 664 127 629 C127 594 151 570 186 570 L186 570 Z " />
<glyph glyph-name="ring" unicode="&#x2da;" horiz-adv-x="371" d="M117 628 C117 671 145 699 186 699 C227 699 255 671 255 628 C255 589 223 556 186 556 C149 556 117 589 117 628 L117 628 Z M90 628 C90 578 134 535 186 535 C238 535 282 578 282 628 C282 683 244 720 186 720 C128 720 90 683 90 628 L90 628 Z " />
<glyph glyph-name="A_sc" unicode="&#x1d00;" horiz-adv-x="632" d="M-2 0 L211 0 L211 11 L195 12 C134 14 118 43 140 105 L174 196 L377 196 L428 80 C445 35 430 15 381 13 L357 12 L357 1 L626 1 L626 12 C578 12 554 29 526 90 L311 567 L287 567 L102 90 C81 40 54 15 9 13 L-3 12 L-2 0 L-2 0 Z M365 220 L181 220 L265 446 L365 220 L365 220 Z " />
<glyph glyph-name="C_sc" unicode="&#x1d04;" horiz-adv-x="667" d="M607 55 L600 66 L600 66 L607 55 L607 55 Z M597 201 C593 190 587 175 583 164 C551 78 468 20 376 19 C243 18 154 121 154 277 C154 431 242 534 373 534 C388 534 404 533 420 531 C489 520 554 464 582 388 C586 377 592 362 596 351 L605 351 L605 498 L599 487 L599 487 L605 498 C544 533 451 557 373 557 C179 557 49 445 49 276 C49 107 179 -6 373 -6 C450 -6 543 18 605 54 L605 200 L597 201 L597 201 Z " />
<glyph glyph-name="D_sc" unicode="&#x1d05;" horiz-adv-x="680" d="M41 542 L52 541 C97 539 116 515 116 464 L116 89 C116 38 97 14 52 12 L41 11 L41 0 L326 0 C508 0 630 111 630 277 C630 443 497 553 298 553 L41 553 L41 542 L41 542 Z M212 24 L212 529 L298 529 C440 529 534 428 534 277 C534 125 451 24 326 24 L212 24 L212 24 Z " />
<glyph glyph-name="E_sc" unicode="&#x1d07;" horiz-adv-x="592" d="M412 198 L412 382 L403 382 L399 371 C383 326 348 307 280 307 L214 307 L214 529 L315 529 C391 529 436 496 462 420 L471 394 L479 394 L479 553 L43 553 L43 542 L54 541 C99 539 118 515 118 464 L118 89 C118 38 99 14 54 12 L43 11 L43 0 L478 0 L480 12 L483 12 C490 56 500 115 508 159 L500 159 L486 133 C446 57 395 24 319 24 L214 24 L214 283 L280 283 C348 283 384 261 399 211 L403 198 L412 198 L412 198 Z " />
<glyph glyph-name="J_sc" unicode="&#x1d0a;" horiz-adv-x="372" d="M332 553 L86 553 L86 542 L97 541 C142 539 161 515 161 464 L161 168 C161 54 150 9 123 9 C104 9 87 25 81 50 C75 73 58 88 38 88 C10 88 -6 73 0 50 C9 14 49 -10 99 -10 C213 -10 257 63 257 249 L257 464 C257 515 276 539 321 541 L332 542 L332 553 L332 553 Z " />
<glyph glyph-name="K_sc" unicode="&#x1d0b;" horiz-adv-x="623" d="M563 553 L393 553 L393 542 L402 541 C433 539 431 519 393 478 L280 365 L280 365 L212 297 L212 463 C212 514 231 538 276 540 L287 541 L287 552 L41 552 L41 541 L52 540 C97 538 116 514 116 463 L116 88 C116 37 97 13 52 11 L41 10 L41 -1 L287 -1 L287 10 L276 11 C231 13 212 37 212 88 L212 297 L227 277 C227 277 298 185 332 141 C413 35 483 -6 579 -6 L613 -6 L613 13 C565 13 512 65 401 209 C353 272 316 321 296 346 L412 463 C463 514 505 538 552 540 L564 541 L563 553 L563 553 Z " />
<glyph glyph-name="M_sc" unicode="&#x1d0d;" horiz-adv-x="823" d="M568 0 L813 0 L813 11 L802 12 C759 14 739 36 735 82 L714 465 C711 516 729 541 772 543 L783 544 L783 555 L666 555 L666 554 L623 554 L430 105 L427 110 L209 554 L60 554 L60 543 L71 542 C114 540 132 517 131 467 L114 90 C112 39 91 15 47 13 L35 12 L35 1 L249 1 L249 12 L229 13 C167 15 142 44 144 105 L159 440 C234 292 308 144 383 -3 L407 -3 L626 485 L641 82 C640 37 621 16 580 14 L569 13 L568 0 L568 0 Z " />
<glyph glyph-name="O_sc" unicode="&#x1d0f;" horiz-adv-x="717" d="M156 277 C156 416 225 534 359 534 C493 534 562 416 562 277 C562 138 493 19 359 19 C225 19 156 138 156 277 L156 277 Z M51 277 C51 125 156 -5 359 -5 C562 -5 667 125 667 277 C667 429 562 558 359 558 C156 558 51 429 51 277 L51 277 Z " />
<glyph glyph-name="P_sc" unicode="&#x1d18;" horiz-adv-x="549" d="M287 11 L276 12 C231 14 212 38 212 89 L212 247 L289 247 C433 247 529 308 529 400 C529 492 441 553 308 553 L41 553 L41 542 L52 541 C97 539 116 515 116 464 L116 89 C116 38 97 14 52 12 L41 11 L41 0 L287 0 L287 11 L287 11 Z M212 271 L212 529 L308 529 C381 529 429 477 429 400 C429 323 373 271 289 271 L212 271 L212 271 Z " />
<glyph glyph-name="T_sc" unicode="&#x1d1b;" horiz-adv-x="578" d="M10 379 L36 440 C62 502 100 529 162 529 L241 529 L241 89 C241 38 222 14 177 12 L166 11 L166 0 L412 0 L412 11 L401 12 C356 14 337 38 337 89 L337 529 L411 529 C474 529 512 502 538 440 L564 379 L573 379 C569 428 563 492 559 541 L558 553 L15 553 L14 541 L16 541 C11 492 5 428 1 379 L10 379 L10 379 Z " />
<glyph glyph-name="U_sc" unicode="&#x1d1c;" horiz-adv-x="638" d="M618 553 L414 553 L414 542 L428 541 C481 539 504 512 504 454 L504 162 C504 82 458 29 338 29 C240 29 202 81 202 159 L202 464 C202 515 221 539 266 541 L277 542 L277 553 L31 553 L31 542 L42 541 C87 539 106 515 106 464 L106 177 C106 68 167 -5 324 -5 C474 -5 533 58 533 152 L533 454 C533 512 555 539 605 541 L618 542 L618 553 L618 553 Z " />
<glyph glyph-name="V_sc" unicode="&#x1d20;" horiz-adv-x="625" d="M261 553 L1 553 L1 542 L10 541 C44 539 69 519 91 477 L321 -16 L345 -16 L524 469 C543 516 571 538 614 540 L626 541 L626 552 L406 552 L406 541 L423 540 C491 538 509 505 483 433 L363 100 L201 463 C179 513 190 538 242 540 L261 541 L261 553 L261 553 Z " />
<glyph glyph-name="W_sc" unicode="&#x1d21;" horiz-adv-x="890" d="M887 553 L681 553 L681 542 L707 541 C760 539 774 515 759 464 L652 120 L482 563 L458 563 L274 -15 L298 -15 L436 419 L610 -15 L634 -15 L787 464 C804 514 831 539 876 541 L888 542 L887 553 L887 553 Z M251 553 L0 553 L0 542 L9 541 C46 539 70 514 90 464 L275 -15 L315 111 L191 467 C174 516 188 539 237 541 L250 542 L251 553 L251 553 Z " />
<glyph glyph-name="Z_sc" unicode="&#x1d22;" horiz-adv-x="550" d="M478 175 L455 124 C424 55 381 25 312 25 L164 25 L487 553 L96 553 L93 541 L94 541 C83 501 69 449 58 409 L67 409 L88 440 C131 502 176 529 238 529 L363 529 L41 0 L461 0 L463 12 L464 12 C472 58 483 120 491 167 C491 171 478 175 478 175 L478 175 Z " />
<glyph glyph-name="Wgrave" unicode="&#x1e80;" horiz-adv-x="1038" d="M1034 660 L826 660 L826 649 L852 648 C904 646 918 623 902 571 L719 -15 L746 -15 L934 571 C951 621 977 646 1022 648 L1033 649 L1034 660 L1034 660 Z M261 660 L-3 660 L-3 649 L6 648 C43 646 67 622 87 571 L312 -15 L338 -15 L561 670 L534 670 L361 136 L200 581 C186 625 201 646 248 648 L261 649 L261 660 L261 660 Z M464 865 C464 858 480 839 503 815 C535 775 621 690 621 690 L632 698 C632 698 584 813 552 854 C537 885 524 905 519 905 C503 905 464 877 464 865 L464 865 Z M719 -15 L769 146 L561 670 L506 500 L719 -15 L719 -15 Z " />
<glyph glyph-name="Wacute" unicode="&#x1e82;" horiz-adv-x="1038" d="M487 690 C487 690 571 775 602 815 C624 840 639 859 639 865 C639 877 601 905 585 905 C581 905 568 885 553 854 C522 814 476 698 476 698 L487 690 L487 690 Z M1034 660 L826 660 L826 649 L852 648 C904 646 918 623 902 571 L719 -15 L746 -15 L934 571 C951 621 977 646 1022 648 L1033 649 L1034 660 L1034 660 Z M261 660 L-3 660 L-3 649 L6 648 C43 646 67 622 87 571 L312 -15 L338 -15 L561 670 L534 670 L361 136 L200 581 C186 625 201 646 248 648 L261 649 L261 660 L261 660 Z M719 -15 L769 146 L561 670 L506 500 L719 -15 L719 -15 Z " />
<glyph glyph-name="Wdieresis" unicode="&#x1e84;" horiz-adv-x="1038" d="M648 730 C683 730 706 754 706 789 C706 824 683 847 648 847 C613 847 589 824 589 789 C589 754 613 730 648 730 L648 730 Z M449 730 C484 730 508 754 508 789 C508 824 484 847 449 847 C414 847 391 824 391 789 C391 754 414 730 449 730 L449 730 Z M1034 660 L826 660 L826 649 L852 648 C904 646 918 623 902 571 L719 -15 L746 -15 L934 571 C951 621 977 646 1022 648 L1033 649 L1034 660 L1034 660 Z M261 660 L-3 660 L-3 649 L6 648 C43 646 67 622 87 571 L312 -15 L338 -15 L561 670 L534 670 L361 136 L200 581 C186 625 201 646 248 648 L261 649 L261 660 L261 660 Z M719 -15 L769 146 L561 670 L506 500 L719 -15 L719 -15 Z " />
<glyph glyph-name="Etilde" unicode="&#x1ebc;" horiz-adv-x="651" d="M162 755 C162 790 181 814 209 814 C268 814 346 752 404 752 C457 752 493 802 493 876 L477 876 C477 839 456 815 425 815 C367 815 289 878 230 878 C180 878 146 829 146 755 L162 755 L162 755 Z M471 254 L471 440 L462 440 L458 429 C442 384 407 365 339 365 L222 365 L222 633 L375 633 C451 633 496 600 522 524 L531 498 L539 498 L539 660 L40 660 L40 649 L51 648 C96 646 115 622 115 571 L115 89 C115 38 96 14 51 12 L40 11 L40 0 L539 0 L541 13 L542 13 C550 58 560 117 568 162 L560 162 L546 136 C506 60 455 27 379 27 L222 27 L222 339 L339 339 C407 339 443 317 458 267 L462 254 L471 254 L471 254 Z " />
<glyph glyph-name="Ygrave" unicode="&#x1ef2;" horiz-adv-x="676" d="M209 0 L465 0 L465 11 L454 12 C409 14 390 38 390 89 L390 314 L390 314 L562 571 C597 621 630 646 670 648 L680 649 L680 660 L480 660 L480 649 L495 648 C550 646 561 620 527 564 L378 336 L236 572 C206 622 212 647 260 649 L272 650 L272 661 L6 661 L6 650 L14 649 C48 647 77 623 108 572 L284 282 L285 80 C283 36 264 15 222 13 L211 12 L209 0 L209 0 Z M256 866 C256 859 271 840 294 816 C325 776 411 691 411 691 L422 699 C422 699 375 814 343 855 C328 886 316 906 311 906 C295 906 256 878 256 866 L256 866 Z " />
<glyph glyph-name="quoteleft" unicode="&#x2018;" horiz-adv-x="261" d="M77 399 L77 399 C89 386 107 379 129 379 C170 379 198 407 198 448 C198 497 156 530 105 514 C99 576 133 633 179 654 L172 669 C97 635 47 559 47 478 C47 449 59 418 77 399 L77 399 Z " />
<glyph glyph-name="quoteright" unicode="&#x2019;" horiz-adv-x="261" d="M181 645 L181 645 C169 658 151 665 129 665 C88 665 60 637 60 596 C60 547 102 514 153 530 C159 468 125 411 79 390 L86 375 C161 409 211 485 211 566 C211 595 199 626 181 645 L181 645 Z " />
<glyph glyph-name="quotedblleft" unicode="&#x201c;" horiz-adv-x="462" d="M278 399 L278 399 C290 386 308 379 330 379 C371 379 399 407 399 448 C399 497 357 530 306 514 C300 576 334 633 380 654 L373 669 C298 635 248 559 248 478 C248 449 260 418 278 399 L278 399 Z M77 399 L77 399 C89 386 107 379 129 379 C170 379 198 407 198 448 C198 497 156 530 105 514 C99 576 133 633 179 654 L172 669 C97 635 47 559 47 478 C47 449 59 418 77 399 L77 399 Z " />
<glyph glyph-name="quotedblright" unicode="&#x201d;" horiz-adv-x="462" d="M382 645 L382 645 C370 658 352 665 330 665 C289 665 261 637 261 596 C261 547 303 514 354 530 C360 468 326 411 280 390 L287 375 C362 409 412 485 412 566 C412 595 400 626 382 645 L382 645 Z M181 645 L181 645 C169 658 151 665 129 665 C88 665 60 637 60 596 C60 547 102 514 153 530 C159 468 125 411 79 390 L86 375 C161 409 211 485 211 566 C211 595 199 626 181 645 L181 645 Z " />
<glyph glyph-name="ellipsis" unicode="&#x2026;" horiz-adv-x="588" d="M490 0 C532 0 560 28 560 69 C560 111 532 139 490 139 C449 139 421 111 421 69 C421 28 449 0 490 0 L490 0 Z M294 0 C335 0 363 28 363 69 C363 111 335 139 294 139 C253 139 225 111 225 69 C225 28 253 0 294 0 L294 0 Z M98 0 C139 0 167 28 167 69 C167 111 139 139 98 139 C57 139 29 111 29 69 C29 28 57 0 98 0 L98 0 Z " />
<glyph glyph-name="guilsinglleft" unicode="&#x2039;" horiz-adv-x="323" d="M119 252 L275 455 L264 466 L20 257 L20 246 L267 37 L278 48 L119 252 L119 252 Z " />
<glyph glyph-name="guilsinglright" unicode="&#x203a;" horiz-adv-x="323" d="M56 37 L303 246 L303 257 L59 466 L48 455 L204 252 L45 48 L56 37 L56 37 Z " />
<glyph glyph-name="Euro" unicode="&#x20ac;" horiz-adv-x="791" d="M731 457 L731 606 C670 641 564 665 467 665 C283 665 150 572 111 424 L60 424 L50 355 L100 355 C99 339 99 322 100 306 L50 306 L40 237 L111 237 C150 89 283 -4 467 -4 C564 -4 670 20 731 55 L731 204 L722 204 C718 193 712 178 708 167 C678 87 595 29 501 24 C490 23 479 23 468 23 C345 23 256 106 228 237 L511 237 L521 306 L219 306 C218 322 218 339 219 355 L521 355 L530 424 L228 424 C256 555 345 638 468 638 C474 638 544 636 544 633 C615 624 681 569 709 494 C713 483 719 468 723 457 L731 457 L731 457 Z " />
<glyph glyph-name="F_sc" unicode="&#xa730;" horiz-adv-x="507" d="M43 542 L54 541 C99 539 118 515 118 464 L118 89 C118 38 99 14 54 12 L43 11 L43 0 L299 0 L299 11 L286 12 C236 14 214 38 214 89 L214 279 L270 279 C338 279 374 257 389 207 L393 194 L402 194 L402 378 L393 378 L389 367 C373 322 338 303 270 303 L214 303 L214 529 L345 529 C421 529 466 496 492 420 L501 394 L509 394 L509 553 L43 553 L43 542 L43 542 Z " />
<glyph glyph-name="S_sc" unicode="&#xa731;" horiz-adv-x="468" d="M383 356 L383 511 L375 496 L375 496 L383 511 C334 539 274 558 232 558 C119 558 44 491 44 390 C44 326 104 266 193 241 C290 214 355 163 355 115 C355 57 305 19 231 19 C162 19 96 75 64 160 C60 171 54 186 50 197 L41 197 L41 43 C91 14 167 -5 231 -5 C346 -5 423 59 423 154 C423 222 359 286 264 313 C172 339 111 385 111 428 C111 492 158 535 228 535 C228 535 243 534 243 533 C285 525 326 487 344 437 C353 413 365 380 374 356 L383 356 L383 356 Z " />
<glyph glyph-name="X_sc" unicode="&#xf078;" horiz-adv-x="618" d="M285 553 L28 553 L28 542 L37 541 C71 539 101 515 135 464 C180 397 225 329 269 262 L149 81 C117 36 83 15 40 13 L28 12 L28 1 L238 1 L238 12 L223 13 C166 15 156 40 188 95 L282 243 L387 85 C417 38 409 16 359 14 L343 13 L343 2 L601 2 L601 13 L592 14 C558 16 528 40 494 91 C443 169 390 247 339 324 L444 479 C476 521 509 541 552 543 L564 544 L564 555 L353 555 L353 544 L379 543 C431 541 438 517 405 465 L325 343 L238 474 C211 519 220 540 269 542 L285 543 L285 553 L285 553 Z " />
</font>
</svg>
